G04 #@! TF.GenerationSoftware,KiCad,Pcbnew,5.1.4-1.fc30*
G04 #@! TF.CreationDate,2019-08-27T20:45:53+02:00*
G04 #@! TF.ProjectId,BoatFanControl,426f6174-4661-46e4-936f-6e74726f6c2e,rev?*
G04 #@! TF.SameCoordinates,PX5140c80PY5efc680*
G04 #@! TF.FileFunction,Legend,Top*
G04 #@! TF.FilePolarity,Positive*
%FSLAX46Y46*%
G04 Gerber Fmt 4.6, Leading zero omitted, Abs format (unit mm)*
G04 Created by KiCad (PCBNEW 5.1.4-1.fc30) date 2019-08-27 20:45:53*
%MOMM*%
%LPD*%
G04 APERTURE LIST*
%ADD10C,0.200000*%
%ADD11C,0.300000*%
%ADD12C,0.120000*%
%ADD13C,0.150000*%
G04 APERTURE END LIST*
D10*
X5733333Y990477D02*
X5933333Y895239D01*
X6266666Y895239D01*
X6399999Y990477D01*
X6466666Y1085715D01*
X6533333Y1276191D01*
X6533333Y1466667D01*
X6466666Y1657143D01*
X6399999Y1752381D01*
X6266666Y1847620D01*
X5999999Y1942858D01*
X5866666Y2038096D01*
X5799999Y2133334D01*
X5733333Y2323810D01*
X5733333Y2514286D01*
X5799999Y2704762D01*
X5866666Y2800000D01*
X5999999Y2895239D01*
X6333333Y2895239D01*
X6533333Y2800000D01*
X7333333Y895239D02*
X7199999Y990477D01*
X7133333Y1085715D01*
X7066666Y1276191D01*
X7066666Y1847620D01*
X7133333Y2038096D01*
X7199999Y2133334D01*
X7333333Y2228572D01*
X7533333Y2228572D01*
X7666666Y2133334D01*
X7733333Y2038096D01*
X7799999Y1847620D01*
X7799999Y1276191D01*
X7733333Y1085715D01*
X7666666Y990477D01*
X7533333Y895239D01*
X7333333Y895239D01*
X8599999Y895239D02*
X8466666Y990477D01*
X8399999Y1180953D01*
X8399999Y2895239D01*
X9733333Y895239D02*
X9733333Y1942858D01*
X9666666Y2133334D01*
X9533333Y2228572D01*
X9266666Y2228572D01*
X9133333Y2133334D01*
X9733333Y990477D02*
X9599999Y895239D01*
X9266666Y895239D01*
X9133333Y990477D01*
X9066666Y1180953D01*
X9066666Y1371429D01*
X9133333Y1561905D01*
X9266666Y1657143D01*
X9599999Y1657143D01*
X9733333Y1752381D01*
X10399999Y895239D02*
X10399999Y2228572D01*
X10399999Y1847620D02*
X10466666Y2038096D01*
X10533333Y2133334D01*
X10666666Y2228572D01*
X10799999Y2228572D01*
X12999999Y895239D02*
X12333333Y895239D01*
X12333333Y2895239D01*
X13466666Y895239D02*
X13466666Y2228572D01*
X13466666Y2895239D02*
X13399999Y2800000D01*
X13466666Y2704762D01*
X13533333Y2800000D01*
X13466666Y2895239D01*
X13466666Y2704762D01*
X14733333Y2228572D02*
X14733333Y609524D01*
X14666666Y419048D01*
X14599999Y323810D01*
X14466666Y228572D01*
X14266666Y228572D01*
X14133333Y323810D01*
X14733333Y990477D02*
X14599999Y895239D01*
X14333333Y895239D01*
X14199999Y990477D01*
X14133333Y1085715D01*
X14066666Y1276191D01*
X14066666Y1847620D01*
X14133333Y2038096D01*
X14199999Y2133334D01*
X14333333Y2228572D01*
X14599999Y2228572D01*
X14733333Y2133334D01*
X15399999Y895239D02*
X15399999Y2895239D01*
X15999999Y895239D02*
X15999999Y1942858D01*
X15933333Y2133334D01*
X15799999Y2228572D01*
X15599999Y2228572D01*
X15466666Y2133334D01*
X15399999Y2038096D01*
X16466666Y2228572D02*
X16999999Y2228572D01*
X16666666Y2895239D02*
X16666666Y1180953D01*
X16733333Y990477D01*
X16866666Y895239D01*
X16999999Y895239D01*
X17399999Y990477D02*
X17533333Y895239D01*
X17799999Y895239D01*
X17933333Y990477D01*
X17999999Y1180953D01*
X17999999Y1276191D01*
X17933333Y1466667D01*
X17799999Y1561905D01*
X17599999Y1561905D01*
X17466666Y1657143D01*
X17399999Y1847620D01*
X17399999Y1942858D01*
X17466666Y2133334D01*
X17599999Y2228572D01*
X17799999Y2228572D01*
X17933333Y2133334D01*
X19666666Y895239D02*
X19666666Y2895239D01*
X19666666Y2133334D02*
X19799999Y2228572D01*
X20066666Y2228572D01*
X20199999Y2133334D01*
X20266666Y2038096D01*
X20333333Y1847620D01*
X20333333Y1276191D01*
X20266666Y1085715D01*
X20199999Y990477D01*
X20066666Y895239D01*
X19799999Y895239D01*
X19666666Y990477D01*
X20799999Y2228572D02*
X21133333Y895239D01*
X21466666Y2228572D02*
X21133333Y895239D01*
X20999999Y419048D01*
X20933333Y323810D01*
X20799999Y228572D01*
X23333333Y2895239D02*
X23599999Y2895239D01*
X23733333Y2800000D01*
X23866666Y2609524D01*
X23933333Y2228572D01*
X23933333Y1561905D01*
X23866666Y1180953D01*
X23733333Y990477D01*
X23599999Y895239D01*
X23333333Y895239D01*
X23199999Y990477D01*
X23066666Y1180953D01*
X22999999Y1561905D01*
X22999999Y2228572D01*
X23066666Y2609524D01*
X23199999Y2800000D01*
X23333333Y2895239D01*
X24399999Y2228572D02*
X24666666Y895239D01*
X24933333Y1847620D01*
X25199999Y895239D01*
X25466666Y2228572D01*
X26533333Y990477D02*
X26399999Y895239D01*
X26133333Y895239D01*
X25999999Y990477D01*
X25933333Y1180953D01*
X25933333Y1942858D01*
X25999999Y2133334D01*
X26133333Y2228572D01*
X26399999Y2228572D01*
X26533333Y2133334D01*
X26599999Y1942858D01*
X26599999Y1752381D01*
X25933333Y1561905D01*
X27199999Y2228572D02*
X27199999Y895239D01*
X27199999Y2038096D02*
X27266666Y2133334D01*
X27399999Y2228572D01*
X27599999Y2228572D01*
X27733333Y2133334D01*
X27799999Y1942858D01*
X27799999Y895239D01*
D11*
X24592857Y29671429D02*
X24664285Y29885715D01*
X24735714Y29957143D01*
X24878571Y30028572D01*
X25092857Y30028572D01*
X25235714Y29957143D01*
X25307142Y29885715D01*
X25378571Y29742858D01*
X25378571Y29171429D01*
X23878571Y29171429D01*
X23878571Y29671429D01*
X23950000Y29814286D01*
X24021428Y29885715D01*
X24164285Y29957143D01*
X24307142Y29957143D01*
X24450000Y29885715D01*
X24521428Y29814286D01*
X24592857Y29671429D01*
X24592857Y29171429D01*
X25378571Y31314286D02*
X24592857Y31314286D01*
X24450000Y31242858D01*
X24378571Y31100000D01*
X24378571Y30814286D01*
X24450000Y30671429D01*
X25307142Y31314286D02*
X25378571Y31171429D01*
X25378571Y30814286D01*
X25307142Y30671429D01*
X25164285Y30600000D01*
X25021428Y30600000D01*
X24878571Y30671429D01*
X24807142Y30814286D01*
X24807142Y31171429D01*
X24735714Y31314286D01*
X24378571Y31814286D02*
X24378571Y32385715D01*
X23878571Y32028572D02*
X25164285Y32028572D01*
X25307142Y32100000D01*
X25378571Y32242858D01*
X25378571Y32385715D01*
X24378571Y32671429D02*
X24378571Y33242858D01*
X23878571Y32885715D02*
X25164285Y32885715D01*
X25307142Y32957143D01*
X25378571Y33100000D01*
X25378571Y33242858D01*
X32078571Y23321429D02*
X30578571Y23321429D01*
X30578571Y23678572D01*
X30650000Y23892858D01*
X30792857Y24035715D01*
X30935714Y24107143D01*
X31221428Y24178572D01*
X31435714Y24178572D01*
X31721428Y24107143D01*
X31864285Y24035715D01*
X32007142Y23892858D01*
X32078571Y23678572D01*
X32078571Y23321429D01*
X32078571Y24821429D02*
X30578571Y24821429D01*
X31292857Y24821429D02*
X31292857Y25678572D01*
X32078571Y25678572D02*
X30578571Y25678572D01*
X30578571Y26178572D02*
X30578571Y27035715D01*
X32078571Y26607143D02*
X30578571Y26607143D01*
X32078571Y28321429D02*
X32078571Y27464286D01*
X32078571Y27892858D02*
X30578571Y27892858D01*
X30792857Y27750000D01*
X30935714Y27607143D01*
X31007142Y27464286D01*
X32078571Y29750000D02*
X32078571Y28892858D01*
X32078571Y29321429D02*
X30578571Y29321429D01*
X30792857Y29178572D01*
X30935714Y29035715D01*
X31007142Y28892858D01*
X24992857Y19257143D02*
X24992857Y18757143D01*
X25778571Y18757143D02*
X24278571Y18757143D01*
X24278571Y19471429D01*
X25350000Y19971429D02*
X25350000Y20685715D01*
X25778571Y19828572D02*
X24278571Y20328572D01*
X25778571Y20828572D01*
X25778571Y21328572D02*
X24278571Y21328572D01*
X25778571Y22185715D01*
X24278571Y22185715D01*
X25207142Y22900000D02*
X25207142Y24042858D01*
X31050000Y14857143D02*
X30978571Y14714286D01*
X30978571Y14500000D01*
X31050000Y14285715D01*
X31192857Y14142858D01*
X31335714Y14071429D01*
X31621428Y14000000D01*
X31835714Y14000000D01*
X32121428Y14071429D01*
X32264285Y14142858D01*
X32407142Y14285715D01*
X32478571Y14500000D01*
X32478571Y14642858D01*
X32407142Y14857143D01*
X32335714Y14928572D01*
X31835714Y14928572D01*
X31835714Y14642858D01*
X32478571Y15571429D02*
X30978571Y15571429D01*
X32478571Y16428572D01*
X30978571Y16428572D01*
X32478571Y17142858D02*
X30978571Y17142858D01*
X30978571Y17500000D01*
X31050000Y17714286D01*
X31192857Y17857143D01*
X31335714Y17928572D01*
X31621428Y18000000D01*
X31835714Y18000000D01*
X32121428Y17928572D01*
X32264285Y17857143D01*
X32407142Y17714286D01*
X32478571Y17500000D01*
X32478571Y17142858D01*
D12*
X22700000Y8770000D02*
X22700000Y11380000D01*
X24070000Y7400000D02*
G75*
G03X24070000Y7400000I-1370000J0D01*
G01*
X24400000Y4770000D02*
X24400000Y7380000D01*
X25770000Y3400000D02*
G75*
G03X25770000Y3400000I-1370000J0D01*
G01*
X21200000Y14880000D02*
X21200000Y15650000D01*
X21200000Y22960000D02*
X21200000Y22190000D01*
X22570000Y15650000D02*
X22570000Y22190000D01*
X19830000Y15650000D02*
X22570000Y15650000D01*
X19830000Y22190000D02*
X19830000Y15650000D01*
X22570000Y22190000D02*
X19830000Y22190000D01*
X14851186Y24651186D02*
X15395658Y25195658D01*
X20564609Y30364609D02*
X20020137Y29820137D01*
X16364395Y24226922D02*
X20988873Y28851400D01*
X14426922Y26164395D02*
X16364395Y24226922D01*
X19051400Y30788873D02*
X14426922Y26164395D01*
X20988873Y28851400D02*
X19051400Y30788873D01*
X16440000Y12430000D02*
X18400000Y12430000D01*
X16440000Y9890000D02*
X18400000Y9890000D01*
X16440000Y7350000D02*
X18400000Y7350000D01*
X330000Y15140000D02*
X16440000Y15140000D01*
X330000Y4640000D02*
X16440000Y4640000D01*
X330000Y4640000D02*
X330000Y15140000D01*
X16440000Y4640000D02*
X16440000Y15140000D01*
X28600000Y5150000D02*
X30100000Y5150000D01*
X32600000Y6400000D02*
X32600000Y10900000D01*
X30100000Y12150000D02*
X28600000Y12150000D01*
X26100000Y10900000D02*
X26100000Y6400000D01*
X7780868Y28959762D02*
X9859762Y26880868D01*
X7950574Y29129468D02*
X10029468Y27050574D01*
X7865721Y29044615D02*
X9944615Y26965721D01*
X12836682Y31936682D02*
X12115433Y31215433D01*
X7547523Y26647523D02*
X8268772Y27368772D01*
X11075986Y32254880D02*
X7229325Y28408219D01*
X13154880Y30175986D02*
X11075986Y32254880D01*
X9308219Y26329325D02*
X13154880Y30175986D01*
X7229325Y28408219D02*
X9308219Y26329325D01*
D13*
X3990000Y43350000D02*
X3990000Y34350000D01*
X19450000Y34350000D02*
X19450000Y16850000D01*
X16020000Y34350000D02*
X19450000Y34350000D01*
X450000Y34350000D02*
X450000Y16850000D01*
X16020000Y43350000D02*
X3990000Y43350000D01*
X16020000Y43350000D02*
X16020000Y34350000D01*
X3990000Y34350000D02*
X450000Y34350000D01*
X450000Y16850000D02*
X19450000Y16850000D01*
X23952380Y10233334D02*
X23476190Y9900000D01*
X23952380Y9661905D02*
X22952380Y9661905D01*
X22952380Y10042858D01*
X23000000Y10138096D01*
X23047619Y10185715D01*
X23142857Y10233334D01*
X23285714Y10233334D01*
X23380952Y10185715D01*
X23428571Y10138096D01*
X23476190Y10042858D01*
X23476190Y9661905D01*
X23285714Y11090477D02*
X23952380Y11090477D01*
X22904761Y10852381D02*
X23619047Y10614286D01*
X23619047Y11233334D01*
X25652380Y5633334D02*
X25176190Y5300000D01*
X25652380Y5061905D02*
X24652380Y5061905D01*
X24652380Y5442858D01*
X24700000Y5538096D01*
X24747619Y5585715D01*
X24842857Y5633334D01*
X24985714Y5633334D01*
X25080952Y5585715D01*
X25128571Y5538096D01*
X25176190Y5442858D01*
X25176190Y5061905D01*
X24652380Y5966667D02*
X24652380Y6585715D01*
X25033333Y6252381D01*
X25033333Y6395239D01*
X25080952Y6490477D01*
X25128571Y6538096D01*
X25223809Y6585715D01*
X25461904Y6585715D01*
X25557142Y6538096D01*
X25604761Y6490477D01*
X25652380Y6395239D01*
X25652380Y6109524D01*
X25604761Y6014286D01*
X25557142Y5966667D01*
X21952380Y17033334D02*
X21476190Y16700000D01*
X21952380Y16461905D02*
X20952380Y16461905D01*
X20952380Y16842858D01*
X21000000Y16938096D01*
X21047619Y16985715D01*
X21142857Y17033334D01*
X21285714Y17033334D01*
X21380952Y16985715D01*
X21428571Y16938096D01*
X21476190Y16842858D01*
X21476190Y16461905D01*
X21047619Y17414286D02*
X21000000Y17461905D01*
X20952380Y17557143D01*
X20952380Y17795239D01*
X21000000Y17890477D01*
X21047619Y17938096D01*
X21142857Y17985715D01*
X21238095Y17985715D01*
X21380952Y17938096D01*
X21952380Y17366667D01*
X21952380Y17985715D01*
X22279847Y28088399D02*
X21707427Y28189414D01*
X21875786Y27684338D02*
X21168679Y28391444D01*
X21438053Y28660819D01*
X21539068Y28694490D01*
X21606412Y28694490D01*
X21707427Y28660819D01*
X21808442Y28559803D01*
X21842114Y28458788D01*
X21842114Y28391444D01*
X21808442Y28290429D01*
X21539068Y28021055D01*
X22953282Y28761834D02*
X22549221Y28357773D01*
X22751252Y28559803D02*
X22044145Y29266910D01*
X22077817Y29098551D01*
X22077817Y28963864D01*
X22044145Y28862849D01*
X9747619Y9304762D02*
X9700000Y9209524D01*
X9604761Y9114286D01*
X9461904Y8971429D01*
X9414285Y8876191D01*
X9414285Y8780953D01*
X9652380Y8828572D02*
X9604761Y8733334D01*
X9509523Y8638096D01*
X9319047Y8590477D01*
X8985714Y8590477D01*
X8795238Y8638096D01*
X8700000Y8733334D01*
X8652380Y8828572D01*
X8652380Y9019048D01*
X8700000Y9114286D01*
X8795238Y9209524D01*
X8985714Y9257143D01*
X9319047Y9257143D01*
X9509523Y9209524D01*
X9604761Y9114286D01*
X9652380Y9019048D01*
X9652380Y8828572D01*
X9652380Y10209524D02*
X9652380Y9638096D01*
X9652380Y9923810D02*
X8652380Y9923810D01*
X8795238Y9828572D01*
X8890476Y9733334D01*
X8938095Y9638096D01*
X27052380Y23266667D02*
X27766666Y23266667D01*
X27909523Y23219048D01*
X28004761Y23123810D01*
X28052380Y22980953D01*
X28052380Y22885715D01*
X28052380Y24266667D02*
X28052380Y23695239D01*
X28052380Y23980953D02*
X27052380Y23980953D01*
X27195238Y23885715D01*
X27290476Y23790477D01*
X27338095Y23695239D01*
X30404761Y7366667D02*
X30452380Y7509524D01*
X30452380Y7747620D01*
X30404761Y7842858D01*
X30357142Y7890477D01*
X30261904Y7938096D01*
X30166666Y7938096D01*
X30071428Y7890477D01*
X30023809Y7842858D01*
X29976190Y7747620D01*
X29928571Y7557143D01*
X29880952Y7461905D01*
X29833333Y7414286D01*
X29738095Y7366667D01*
X29642857Y7366667D01*
X29547619Y7414286D01*
X29500000Y7461905D01*
X29452380Y7557143D01*
X29452380Y7795239D01*
X29500000Y7938096D01*
X29452380Y8271429D02*
X30452380Y8509524D01*
X29738095Y8700000D01*
X30452380Y8890477D01*
X29452380Y9128572D01*
X30452380Y10033334D02*
X30452380Y9461905D01*
X30452380Y9747620D02*
X29452380Y9747620D01*
X29595238Y9652381D01*
X29690476Y9557143D01*
X29738095Y9461905D01*
X10640610Y28818005D02*
X9933503Y29525111D01*
X10101862Y29693470D01*
X10236549Y29760814D01*
X10371236Y29760814D01*
X10472251Y29727142D01*
X10640610Y29626127D01*
X10741625Y29525111D01*
X10842641Y29356753D01*
X10876312Y29255737D01*
X10876312Y29121050D01*
X10808969Y28986363D01*
X10640610Y28818005D01*
X11718106Y29895501D02*
X11314045Y29491440D01*
X11516076Y29693470D02*
X10808969Y30400577D01*
X10842641Y30232218D01*
X10842641Y30097531D01*
X10808969Y29996516D01*
X6234688Y27694924D02*
X5527581Y28402031D01*
X6638749Y28098985D02*
X5931642Y28200000D01*
X5931642Y28806092D02*
X5931642Y27997970D01*
X2038095Y23147620D02*
X2038095Y22338096D01*
X2085714Y22242858D01*
X2133333Y22195239D01*
X2228571Y22147620D01*
X2419047Y22147620D01*
X2514285Y22195239D01*
X2561904Y22242858D01*
X2609523Y22338096D01*
X2609523Y23147620D01*
X3609523Y22147620D02*
X3038095Y22147620D01*
X3323809Y22147620D02*
X3323809Y23147620D01*
X3228571Y23004762D01*
X3133333Y22909524D01*
X3038095Y22861905D01*
M02*
