G04 #@! TF.GenerationSoftware,KiCad,Pcbnew,5.1.4-1.fc30*
G04 #@! TF.CreationDate,2019-08-27T20:45:53+02:00*
G04 #@! TF.ProjectId,BoatFanControl,426f6174-4661-46e4-936f-6e74726f6c2e,rev?*
G04 #@! TF.SameCoordinates,PX5140c80PY5efc680*
G04 #@! TF.FileFunction,Copper,L2,Bot*
G04 #@! TF.FilePolarity,Positive*
%FSLAX46Y46*%
G04 Gerber Fmt 4.6, Leading zero omitted, Abs format (unit mm)*
G04 Created by KiCad (PCBNEW 5.1.4-1.fc30) date 2019-08-27 20:45:53*
%MOMM*%
%LPD*%
G04 APERTURE LIST*
%ADD10O,2.500000X2.000000*%
%ADD11C,2.000000*%
%ADD12C,2.000000*%
%ADD13O,4.000000X1.905000*%
%ADD14R,4.000000X1.905000*%
%ADD15O,6.000500X4.000500*%
%ADD16R,6.000500X4.000500*%
%ADD17O,2.000000X4.000000*%
%ADD18C,2.200000*%
%ADD19C,2.200000*%
%ADD20C,1.800000*%
%ADD21C,0.100000*%
%ADD22O,4.000000X1.879600*%
%ADD23O,1.879600X4.000000*%
%ADD24C,0.800000*%
%ADD25C,1.200000*%
G04 APERTURE END LIST*
D10*
X22700000Y12480000D03*
X22700000Y7400000D03*
X24400000Y8480000D03*
X24400000Y3400000D03*
X21200000Y13840000D03*
X21200000Y24000000D03*
D11*
X14115795Y23915795D03*
D12*
X14292572Y23739018D02*
X13939018Y24092572D01*
D11*
X21300000Y31100000D03*
D12*
X21476777Y30923223D02*
X21123223Y31276777D01*
D13*
X19550000Y12430000D03*
X19550000Y9890000D03*
D14*
X19550000Y7350000D03*
D15*
X27600000Y31240000D03*
X27600000Y26160000D03*
X27600000Y21080000D03*
D16*
X27600000Y16000000D03*
D17*
X31600000Y6400000D03*
X27100000Y6400000D03*
X31600000Y10900000D03*
X27100000Y10900000D03*
D18*
X13430652Y32530652D03*
D19*
X12794256Y31894256D02*
X14067048Y33167048D01*
D20*
X6953553Y26053553D03*
D21*
G36*
X6175736Y24002943D02*
G01*
X4902943Y25275736D01*
X7731370Y28104163D01*
X9004163Y26831370D01*
X6175736Y24002943D01*
X6175736Y24002943D01*
G37*
D22*
X2200000Y31430000D03*
X2200000Y28890000D03*
X2200000Y26350000D03*
D23*
X17400000Y19600000D03*
X14860000Y19600000D03*
X12320000Y19600000D03*
X9780000Y19600000D03*
X7240000Y19600000D03*
X4700000Y19600000D03*
D24*
X2230000Y31400000D02*
X2200000Y31430000D01*
X2850000Y25700000D02*
X2200000Y26350000D01*
X6600000Y25700000D02*
X2850000Y25700000D01*
X20390000Y12430000D02*
X19550000Y12430000D01*
X21700000Y13740000D02*
X20390000Y12430000D01*
X23780000Y8480000D02*
X22700000Y7400000D01*
X24400000Y8480000D02*
X23780000Y8480000D01*
X19600000Y7400000D02*
X19550000Y7350000D01*
X22700000Y7400000D02*
X19600000Y7400000D01*
X4700000Y15861510D02*
X4700000Y18600000D01*
X17161510Y3400000D02*
X4700000Y15861510D01*
X24400000Y3400000D02*
X17161510Y3400000D01*
X12320000Y18600000D02*
X12320000Y10080000D01*
X17000000Y5400000D02*
X27100000Y5400000D01*
X12320000Y10080000D02*
X17000000Y5400000D01*
X27100000Y5400000D02*
X27100000Y11900000D01*
X23799750Y31240000D02*
X22155545Y32884205D01*
X22155545Y32884205D02*
X13784205Y32884205D01*
X27600000Y31240000D02*
X23799750Y31240000D01*
X22155545Y31955545D02*
X22155545Y32884205D01*
X21300000Y31100000D02*
X22155545Y31955545D01*
X7240000Y20722084D02*
X7240000Y18600000D01*
X12677916Y26160000D02*
X7240000Y20722084D01*
X27600000Y26160000D02*
X12677916Y26160000D01*
D25*
X23399750Y21080000D02*
X27600000Y21080000D01*
X23336091Y21080000D02*
X23399750Y21080000D01*
X15704916Y13448825D02*
X23336091Y21080000D01*
X15704916Y10535084D02*
X15704916Y13448825D01*
X16350000Y9890000D02*
X15704916Y10535084D01*
X19550000Y9890000D02*
X16350000Y9890000D01*
D24*
X9780000Y20722084D02*
X9780000Y18600000D01*
X12973711Y23915795D02*
X9780000Y20722084D01*
X14115795Y23915795D02*
X12973711Y23915795D01*
X14131590Y23900000D02*
X14115795Y23915795D01*
X14115795Y23915795D02*
X21200000Y24000000D01*
G36*
X11304638Y33244378D02*
G01*
X11116588Y33015238D01*
X10930131Y32666402D01*
X10815311Y32287893D01*
X10776541Y31894256D01*
X10815311Y31500619D01*
X10930131Y31122110D01*
X11116588Y30773274D01*
X11367517Y30467517D01*
X11673274Y30216588D01*
X12022110Y30030131D01*
X12400619Y29915311D01*
X12794256Y29876541D01*
X13187893Y29915311D01*
X13566402Y30030131D01*
X13915238Y30216588D01*
X14144378Y30404638D01*
X15315945Y31576205D01*
X19235484Y31576205D01*
X19205993Y31276777D01*
X19242832Y30902744D01*
X19351933Y30543086D01*
X19529104Y30211621D01*
X19707791Y29993891D01*
X20193891Y29507791D01*
X20411621Y29329104D01*
X20743086Y29151933D01*
X21102744Y29042832D01*
X21476777Y29005992D01*
X21850810Y29042832D01*
X22210468Y29151933D01*
X22541933Y29329104D01*
X22832464Y29567536D01*
X23070896Y29858067D01*
X23190789Y30082371D01*
X23296778Y30025719D01*
X23543337Y29950926D01*
X23735500Y29932000D01*
X23735506Y29932000D01*
X23799749Y29925673D01*
X23863992Y29932000D01*
X24001511Y29932000D01*
X24170179Y29616445D01*
X24533607Y29173607D01*
X24976445Y28810179D01*
X25182575Y28700000D01*
X24976445Y28589821D01*
X24533607Y28226393D01*
X24170179Y27783555D01*
X24001511Y27468000D01*
X12742159Y27468000D01*
X12677916Y27474327D01*
X12613673Y27468000D01*
X12613666Y27468000D01*
X12421503Y27449074D01*
X12174944Y27374281D01*
X11947714Y27252824D01*
X11748546Y27089370D01*
X11707589Y27039464D01*
X7179063Y22510938D01*
X6877768Y22481263D01*
X6529456Y22375604D01*
X6208451Y22204023D01*
X5970000Y22008331D01*
X5731548Y22204023D01*
X5410543Y22375604D01*
X5062231Y22481263D01*
X4700000Y22516940D01*
X4337768Y22481263D01*
X3989456Y22375604D01*
X3668451Y22204023D01*
X3387087Y21973113D01*
X3156177Y21691748D01*
X2984596Y21370743D01*
X2878937Y21022431D01*
X2852200Y20750968D01*
X2852201Y18449031D01*
X2878938Y18177568D01*
X2984597Y17829256D01*
X3156178Y17508251D01*
X3387088Y17226887D01*
X3392000Y17222855D01*
X3392000Y15925753D01*
X3385673Y15861510D01*
X3392000Y15797267D01*
X3392000Y15797261D01*
X3410926Y15605098D01*
X3485719Y15358539D01*
X3607176Y15131309D01*
X3770630Y14932140D01*
X3820536Y14891183D01*
X16191183Y2520536D01*
X16232140Y2470630D01*
X16431308Y2307176D01*
X16658538Y2185719D01*
X16905097Y2110926D01*
X17097260Y2092000D01*
X17097269Y2092000D01*
X17161509Y2085673D01*
X17225749Y2092000D01*
X22755177Y2092000D01*
X22794313Y2044313D01*
X23084844Y1805881D01*
X23416307Y1628710D01*
X23775967Y1519608D01*
X24056276Y1492000D01*
X24743724Y1492000D01*
X25024033Y1519608D01*
X25383693Y1628710D01*
X25715156Y1805881D01*
X26005687Y2044313D01*
X26244119Y2334844D01*
X26421290Y2666307D01*
X26530392Y3025967D01*
X26567231Y3400000D01*
X26550199Y3572927D01*
X26725968Y3519608D01*
X27100000Y3482769D01*
X27474033Y3519608D01*
X27833693Y3628710D01*
X28165156Y3805881D01*
X28455687Y4044313D01*
X28694119Y4334844D01*
X28871290Y4666307D01*
X28980392Y5025967D01*
X29008000Y5306277D01*
X29008000Y7493724D01*
X28980392Y7774033D01*
X28871290Y8133693D01*
X28694119Y8465156D01*
X28542422Y8650000D01*
X28694119Y8834844D01*
X28871290Y9166307D01*
X28980392Y9525967D01*
X29008000Y9806277D01*
X29008000Y11993724D01*
X28980392Y12274033D01*
X28871290Y12633693D01*
X28694119Y12965156D01*
X28455687Y13255687D01*
X28165156Y13494119D01*
X27833692Y13671290D01*
X27474032Y13780392D01*
X27100000Y13817231D01*
X26725967Y13780392D01*
X26366307Y13671290D01*
X26034844Y13494119D01*
X25744313Y13255687D01*
X25505881Y12965156D01*
X25328710Y12633692D01*
X25219608Y12274032D01*
X25192000Y11993723D01*
X25192001Y10309439D01*
X25024033Y10360392D01*
X24743724Y10388000D01*
X24056276Y10388000D01*
X23775967Y10360392D01*
X23416307Y10251290D01*
X23084844Y10074119D01*
X22794313Y9835687D01*
X22555881Y9545156D01*
X22429118Y9308000D01*
X22365170Y9308000D01*
X22431080Y9525278D01*
X22467002Y9890000D01*
X22431080Y10254722D01*
X22324695Y10605427D01*
X22151934Y10928640D01*
X21919438Y11211938D01*
X21636140Y11444434D01*
X21312927Y11617195D01*
X20962222Y11723580D01*
X20688899Y11750500D01*
X18411101Y11750500D01*
X18137778Y11723580D01*
X17787073Y11617195D01*
X17463860Y11444434D01*
X17407280Y11398000D01*
X17212916Y11398000D01*
X17212916Y12824192D01*
X23960725Y19572000D01*
X24108413Y19572000D01*
X24170179Y19456445D01*
X24533607Y19013607D01*
X24976445Y18650179D01*
X25481676Y18380127D01*
X26029883Y18213831D01*
X26457136Y18171750D01*
X28742864Y18171750D01*
X29170117Y18213831D01*
X29718324Y18380127D01*
X30223555Y18650179D01*
X30666393Y19013607D01*
X31029821Y19456445D01*
X31299873Y19961676D01*
X31466169Y20509883D01*
X31522321Y21080000D01*
X31466169Y21650117D01*
X31299873Y22198324D01*
X31029821Y22703555D01*
X30666393Y23146393D01*
X30223555Y23509821D01*
X30017425Y23620000D01*
X30223555Y23730179D01*
X30666393Y24093607D01*
X31029821Y24536445D01*
X31299873Y25041676D01*
X31466169Y25589883D01*
X31522321Y26160000D01*
X31466169Y26730117D01*
X31299873Y27278324D01*
X31029821Y27783555D01*
X30666393Y28226393D01*
X30223555Y28589821D01*
X30017425Y28700000D01*
X30223555Y28810179D01*
X30666393Y29173607D01*
X31029821Y29616445D01*
X31299873Y30121676D01*
X31466169Y30669883D01*
X31522321Y31240000D01*
X31466169Y31810117D01*
X31299873Y32358324D01*
X31029821Y32863555D01*
X30666393Y33306393D01*
X30257455Y33642000D01*
X32842001Y33642000D01*
X32842000Y4104848D01*
X32598757Y4348091D01*
X32187983Y4622561D01*
X31731557Y4811619D01*
X31247016Y4908000D01*
X30752984Y4908000D01*
X30268443Y4811619D01*
X29812017Y4622561D01*
X29401243Y4348091D01*
X29051909Y3998757D01*
X28777439Y3587983D01*
X28588381Y3131557D01*
X28492000Y2647016D01*
X28492000Y2152984D01*
X28588381Y1668443D01*
X28777439Y1212017D01*
X29051909Y801243D01*
X29095152Y758000D01*
X4704848Y758000D01*
X4948091Y1001243D01*
X5222561Y1412017D01*
X5411619Y1868443D01*
X5508000Y2352984D01*
X5508000Y2847016D01*
X5411619Y3331557D01*
X5222561Y3787983D01*
X4948091Y4198757D01*
X4598757Y4548091D01*
X4187983Y4822561D01*
X3731557Y5011619D01*
X3247016Y5108000D01*
X2752984Y5108000D01*
X2268443Y5011619D01*
X1812017Y4822561D01*
X1401243Y4548091D01*
X1051909Y4198757D01*
X780965Y3793260D01*
X816003Y9890000D01*
X1079140Y9890000D01*
X1130460Y9368941D01*
X1282447Y8867906D01*
X1529261Y8406150D01*
X1861417Y8001417D01*
X2266150Y7669261D01*
X2727906Y7422447D01*
X3228941Y7270460D01*
X3619431Y7232000D01*
X3880569Y7232000D01*
X4271059Y7270460D01*
X4772094Y7422447D01*
X5233850Y7669261D01*
X5638583Y8001417D01*
X5970739Y8406150D01*
X6217553Y8867906D01*
X6369540Y9368941D01*
X6420860Y9890000D01*
X6369540Y10411059D01*
X6217553Y10912094D01*
X5970739Y11373850D01*
X5638583Y11778583D01*
X5233850Y12110739D01*
X4772094Y12357553D01*
X4271059Y12509540D01*
X3880569Y12548000D01*
X3619431Y12548000D01*
X3228941Y12509540D01*
X2727906Y12357553D01*
X2266150Y12110739D01*
X1861417Y11778583D01*
X1529261Y11373850D01*
X1282447Y10912094D01*
X1130460Y10411059D01*
X1079140Y9890000D01*
X816003Y9890000D01*
X900066Y24516872D01*
X1049031Y24502200D01*
X2316194Y24502200D01*
X2347028Y24485719D01*
X2593587Y24410926D01*
X2785750Y24392000D01*
X2785757Y24392000D01*
X2850000Y24385673D01*
X2914243Y24392000D01*
X4496361Y24392000D01*
X5530577Y23357784D01*
X5668838Y23244316D01*
X5826578Y23160002D01*
X5997737Y23108081D01*
X6175736Y23090550D01*
X6353735Y23108081D01*
X6524894Y23160002D01*
X6682634Y23244316D01*
X6820895Y23357784D01*
X9649322Y26186211D01*
X9762790Y26324472D01*
X9847104Y26482212D01*
X9899025Y26653371D01*
X9916556Y26831370D01*
X9899025Y27009369D01*
X9847104Y27180528D01*
X9762790Y27338268D01*
X9649322Y27476529D01*
X8376529Y28749322D01*
X8238268Y28862790D01*
X8080528Y28947104D01*
X7909369Y28999025D01*
X7731370Y29016556D01*
X7553371Y28999025D01*
X7382212Y28947104D01*
X7224472Y28862790D01*
X7086211Y28749322D01*
X5344889Y27008000D01*
X4991543Y27008000D01*
X4975604Y27060544D01*
X4804023Y27381549D01*
X4573113Y27662913D01*
X4291749Y27893823D01*
X3970744Y28065404D01*
X3622432Y28171063D01*
X3350969Y28197800D01*
X1049031Y28197800D01*
X921149Y28185205D01*
X929245Y29593998D01*
X1049031Y29582200D01*
X3350969Y29582200D01*
X3622432Y29608937D01*
X3970744Y29714596D01*
X4291749Y29886177D01*
X4573113Y30117087D01*
X4804023Y30398451D01*
X4975604Y30719456D01*
X5081263Y31067768D01*
X5116940Y31430000D01*
X5081263Y31792232D01*
X4975604Y32140544D01*
X4804023Y32461549D01*
X4573113Y32742913D01*
X4291749Y32973823D01*
X3970744Y33145404D01*
X3622432Y33251063D01*
X3350969Y33277800D01*
X1049031Y33277800D01*
X950360Y33268082D01*
X952509Y33642000D01*
X11702260Y33642000D01*
X11304638Y33244378D01*
X11304638Y33244378D01*
G37*
X11304638Y33244378D02*
X11116588Y33015238D01*
X10930131Y32666402D01*
X10815311Y32287893D01*
X10776541Y31894256D01*
X10815311Y31500619D01*
X10930131Y31122110D01*
X11116588Y30773274D01*
X11367517Y30467517D01*
X11673274Y30216588D01*
X12022110Y30030131D01*
X12400619Y29915311D01*
X12794256Y29876541D01*
X13187893Y29915311D01*
X13566402Y30030131D01*
X13915238Y30216588D01*
X14144378Y30404638D01*
X15315945Y31576205D01*
X19235484Y31576205D01*
X19205993Y31276777D01*
X19242832Y30902744D01*
X19351933Y30543086D01*
X19529104Y30211621D01*
X19707791Y29993891D01*
X20193891Y29507791D01*
X20411621Y29329104D01*
X20743086Y29151933D01*
X21102744Y29042832D01*
X21476777Y29005992D01*
X21850810Y29042832D01*
X22210468Y29151933D01*
X22541933Y29329104D01*
X22832464Y29567536D01*
X23070896Y29858067D01*
X23190789Y30082371D01*
X23296778Y30025719D01*
X23543337Y29950926D01*
X23735500Y29932000D01*
X23735506Y29932000D01*
X23799749Y29925673D01*
X23863992Y29932000D01*
X24001511Y29932000D01*
X24170179Y29616445D01*
X24533607Y29173607D01*
X24976445Y28810179D01*
X25182575Y28700000D01*
X24976445Y28589821D01*
X24533607Y28226393D01*
X24170179Y27783555D01*
X24001511Y27468000D01*
X12742159Y27468000D01*
X12677916Y27474327D01*
X12613673Y27468000D01*
X12613666Y27468000D01*
X12421503Y27449074D01*
X12174944Y27374281D01*
X11947714Y27252824D01*
X11748546Y27089370D01*
X11707589Y27039464D01*
X7179063Y22510938D01*
X6877768Y22481263D01*
X6529456Y22375604D01*
X6208451Y22204023D01*
X5970000Y22008331D01*
X5731548Y22204023D01*
X5410543Y22375604D01*
X5062231Y22481263D01*
X4700000Y22516940D01*
X4337768Y22481263D01*
X3989456Y22375604D01*
X3668451Y22204023D01*
X3387087Y21973113D01*
X3156177Y21691748D01*
X2984596Y21370743D01*
X2878937Y21022431D01*
X2852200Y20750968D01*
X2852201Y18449031D01*
X2878938Y18177568D01*
X2984597Y17829256D01*
X3156178Y17508251D01*
X3387088Y17226887D01*
X3392000Y17222855D01*
X3392000Y15925753D01*
X3385673Y15861510D01*
X3392000Y15797267D01*
X3392000Y15797261D01*
X3410926Y15605098D01*
X3485719Y15358539D01*
X3607176Y15131309D01*
X3770630Y14932140D01*
X3820536Y14891183D01*
X16191183Y2520536D01*
X16232140Y2470630D01*
X16431308Y2307176D01*
X16658538Y2185719D01*
X16905097Y2110926D01*
X17097260Y2092000D01*
X17097269Y2092000D01*
X17161509Y2085673D01*
X17225749Y2092000D01*
X22755177Y2092000D01*
X22794313Y2044313D01*
X23084844Y1805881D01*
X23416307Y1628710D01*
X23775967Y1519608D01*
X24056276Y1492000D01*
X24743724Y1492000D01*
X25024033Y1519608D01*
X25383693Y1628710D01*
X25715156Y1805881D01*
X26005687Y2044313D01*
X26244119Y2334844D01*
X26421290Y2666307D01*
X26530392Y3025967D01*
X26567231Y3400000D01*
X26550199Y3572927D01*
X26725968Y3519608D01*
X27100000Y3482769D01*
X27474033Y3519608D01*
X27833693Y3628710D01*
X28165156Y3805881D01*
X28455687Y4044313D01*
X28694119Y4334844D01*
X28871290Y4666307D01*
X28980392Y5025967D01*
X29008000Y5306277D01*
X29008000Y7493724D01*
X28980392Y7774033D01*
X28871290Y8133693D01*
X28694119Y8465156D01*
X28542422Y8650000D01*
X28694119Y8834844D01*
X28871290Y9166307D01*
X28980392Y9525967D01*
X29008000Y9806277D01*
X29008000Y11993724D01*
X28980392Y12274033D01*
X28871290Y12633693D01*
X28694119Y12965156D01*
X28455687Y13255687D01*
X28165156Y13494119D01*
X27833692Y13671290D01*
X27474032Y13780392D01*
X27100000Y13817231D01*
X26725967Y13780392D01*
X26366307Y13671290D01*
X26034844Y13494119D01*
X25744313Y13255687D01*
X25505881Y12965156D01*
X25328710Y12633692D01*
X25219608Y12274032D01*
X25192000Y11993723D01*
X25192001Y10309439D01*
X25024033Y10360392D01*
X24743724Y10388000D01*
X24056276Y10388000D01*
X23775967Y10360392D01*
X23416307Y10251290D01*
X23084844Y10074119D01*
X22794313Y9835687D01*
X22555881Y9545156D01*
X22429118Y9308000D01*
X22365170Y9308000D01*
X22431080Y9525278D01*
X22467002Y9890000D01*
X22431080Y10254722D01*
X22324695Y10605427D01*
X22151934Y10928640D01*
X21919438Y11211938D01*
X21636140Y11444434D01*
X21312927Y11617195D01*
X20962222Y11723580D01*
X20688899Y11750500D01*
X18411101Y11750500D01*
X18137778Y11723580D01*
X17787073Y11617195D01*
X17463860Y11444434D01*
X17407280Y11398000D01*
X17212916Y11398000D01*
X17212916Y12824192D01*
X23960725Y19572000D01*
X24108413Y19572000D01*
X24170179Y19456445D01*
X24533607Y19013607D01*
X24976445Y18650179D01*
X25481676Y18380127D01*
X26029883Y18213831D01*
X26457136Y18171750D01*
X28742864Y18171750D01*
X29170117Y18213831D01*
X29718324Y18380127D01*
X30223555Y18650179D01*
X30666393Y19013607D01*
X31029821Y19456445D01*
X31299873Y19961676D01*
X31466169Y20509883D01*
X31522321Y21080000D01*
X31466169Y21650117D01*
X31299873Y22198324D01*
X31029821Y22703555D01*
X30666393Y23146393D01*
X30223555Y23509821D01*
X30017425Y23620000D01*
X30223555Y23730179D01*
X30666393Y24093607D01*
X31029821Y24536445D01*
X31299873Y25041676D01*
X31466169Y25589883D01*
X31522321Y26160000D01*
X31466169Y26730117D01*
X31299873Y27278324D01*
X31029821Y27783555D01*
X30666393Y28226393D01*
X30223555Y28589821D01*
X30017425Y28700000D01*
X30223555Y28810179D01*
X30666393Y29173607D01*
X31029821Y29616445D01*
X31299873Y30121676D01*
X31466169Y30669883D01*
X31522321Y31240000D01*
X31466169Y31810117D01*
X31299873Y32358324D01*
X31029821Y32863555D01*
X30666393Y33306393D01*
X30257455Y33642000D01*
X32842001Y33642000D01*
X32842000Y4104848D01*
X32598757Y4348091D01*
X32187983Y4622561D01*
X31731557Y4811619D01*
X31247016Y4908000D01*
X30752984Y4908000D01*
X30268443Y4811619D01*
X29812017Y4622561D01*
X29401243Y4348091D01*
X29051909Y3998757D01*
X28777439Y3587983D01*
X28588381Y3131557D01*
X28492000Y2647016D01*
X28492000Y2152984D01*
X28588381Y1668443D01*
X28777439Y1212017D01*
X29051909Y801243D01*
X29095152Y758000D01*
X4704848Y758000D01*
X4948091Y1001243D01*
X5222561Y1412017D01*
X5411619Y1868443D01*
X5508000Y2352984D01*
X5508000Y2847016D01*
X5411619Y3331557D01*
X5222561Y3787983D01*
X4948091Y4198757D01*
X4598757Y4548091D01*
X4187983Y4822561D01*
X3731557Y5011619D01*
X3247016Y5108000D01*
X2752984Y5108000D01*
X2268443Y5011619D01*
X1812017Y4822561D01*
X1401243Y4548091D01*
X1051909Y4198757D01*
X780965Y3793260D01*
X816003Y9890000D01*
X1079140Y9890000D01*
X1130460Y9368941D01*
X1282447Y8867906D01*
X1529261Y8406150D01*
X1861417Y8001417D01*
X2266150Y7669261D01*
X2727906Y7422447D01*
X3228941Y7270460D01*
X3619431Y7232000D01*
X3880569Y7232000D01*
X4271059Y7270460D01*
X4772094Y7422447D01*
X5233850Y7669261D01*
X5638583Y8001417D01*
X5970739Y8406150D01*
X6217553Y8867906D01*
X6369540Y9368941D01*
X6420860Y9890000D01*
X6369540Y10411059D01*
X6217553Y10912094D01*
X5970739Y11373850D01*
X5638583Y11778583D01*
X5233850Y12110739D01*
X4772094Y12357553D01*
X4271059Y12509540D01*
X3880569Y12548000D01*
X3619431Y12548000D01*
X3228941Y12509540D01*
X2727906Y12357553D01*
X2266150Y12110739D01*
X1861417Y11778583D01*
X1529261Y11373850D01*
X1282447Y10912094D01*
X1130460Y10411059D01*
X1079140Y9890000D01*
X816003Y9890000D01*
X900066Y24516872D01*
X1049031Y24502200D01*
X2316194Y24502200D01*
X2347028Y24485719D01*
X2593587Y24410926D01*
X2785750Y24392000D01*
X2785757Y24392000D01*
X2850000Y24385673D01*
X2914243Y24392000D01*
X4496361Y24392000D01*
X5530577Y23357784D01*
X5668838Y23244316D01*
X5826578Y23160002D01*
X5997737Y23108081D01*
X6175736Y23090550D01*
X6353735Y23108081D01*
X6524894Y23160002D01*
X6682634Y23244316D01*
X6820895Y23357784D01*
X9649322Y26186211D01*
X9762790Y26324472D01*
X9847104Y26482212D01*
X9899025Y26653371D01*
X9916556Y26831370D01*
X9899025Y27009369D01*
X9847104Y27180528D01*
X9762790Y27338268D01*
X9649322Y27476529D01*
X8376529Y28749322D01*
X8238268Y28862790D01*
X8080528Y28947104D01*
X7909369Y28999025D01*
X7731370Y29016556D01*
X7553371Y28999025D01*
X7382212Y28947104D01*
X7224472Y28862790D01*
X7086211Y28749322D01*
X5344889Y27008000D01*
X4991543Y27008000D01*
X4975604Y27060544D01*
X4804023Y27381549D01*
X4573113Y27662913D01*
X4291749Y27893823D01*
X3970744Y28065404D01*
X3622432Y28171063D01*
X3350969Y28197800D01*
X1049031Y28197800D01*
X921149Y28185205D01*
X929245Y29593998D01*
X1049031Y29582200D01*
X3350969Y29582200D01*
X3622432Y29608937D01*
X3970744Y29714596D01*
X4291749Y29886177D01*
X4573113Y30117087D01*
X4804023Y30398451D01*
X4975604Y30719456D01*
X5081263Y31067768D01*
X5116940Y31430000D01*
X5081263Y31792232D01*
X4975604Y32140544D01*
X4804023Y32461549D01*
X4573113Y32742913D01*
X4291749Y32973823D01*
X3970744Y33145404D01*
X3622432Y33251063D01*
X3350969Y33277800D01*
X1049031Y33277800D01*
X950360Y33268082D01*
X952509Y33642000D01*
X11702260Y33642000D01*
X11304638Y33244378D01*
M02*
