<?xml version="1.0" standalone="no"?>
 <!DOCTYPE svg PUBLIC "-//W3C//DTD SVG 1.1//EN" 
 "http://www.w3.org/Graphics/SVG/1.1/DTD/svg11.dtd"> 
<svg xmlns="http://www.w3.org/2000/svg" version="1.1" 
    width="29.7002cm" height="21.0007cm" viewBox="0 0 116930 82680 ">
<title>SVG Picture created as BoatFanControl-F_SilkS.svg date 2019/08/27 20:41:50 </title>
  <desc>Picture generated by PCBNEW </desc>
<g style="fill:#000000; fill-opacity:1;stroke:#000000; stroke-opacity:1;
stroke-linecap:round; stroke-linejoin:round; "
 transform="translate(0 0) scale(1 1)">
</g>
<g style="fill:#000000; fill-opacity:0.0; 
stroke:#000000; stroke-width:-0.000393701; stroke-opacity:1; 
stroke-linecap:round; stroke-linejoin:round;">
</g>
<g style="fill:#000000; fill-opacity:0.0; 
stroke:#000000; stroke-width:78.7402; stroke-opacity:1; 
stroke-linecap:round; stroke-linejoin:round;">
<path d="M35800 38822
L35879 38860
L36010 38860
L36062 38822
L36089 38785
L36115 38710
L36115 38635
L36089 38560
L36062 38522
L36010 38485
L35905 38447
L35853 38410
L35826 38372
L35800 38297
L35800 38222
L35826 38147
L35853 38110
L35905 38072
L36036 38072
L36115 38110
" />
<path d="M36430 38860
L36377 38822
L36351 38785
L36325 38710
L36325 38485
L36351 38410
L36377 38372
L36430 38335
L36509 38335
L36561 38372
L36587 38410
L36614 38485
L36614 38710
L36587 38785
L36561 38822
L36509 38860
L36430 38860
" />
<path d="M36929 38860
L36876 38822
L36850 38747
L36850 38072
" />
<path d="M37375 38860
L37375 38447
L37349 38372
L37296 38335
L37191 38335
L37139 38372
" />
<path d="M37375 38822
L37322 38860
L37191 38860
L37139 38822
L37112 38747
L37112 38672
L37139 38597
L37191 38560
L37322 38560
L37375 38522
" />
<path d="M37637 38860
L37637 38335
" />
<path d="M37637 38485
L37664 38410
L37690 38372
L37742 38335
L37795 38335
" />
<path d="M38661 38860
L38398 38860
L38398 38072
" />
<path d="M38845 38860
L38845 38335
" />
<path d="M38845 38072
L38818 38110
L38845 38147
L38871 38110
L38845 38072
L38845 38147
" />
<path d="M39343 38335
L39343 38972
L39317 39047
L39291 39085
L39238 39122
L39160 39122
L39107 39085
" />
<path d="M39343 38822
L39291 38860
L39186 38860
L39133 38822
L39107 38785
L39081 38710
L39081 38485
L39107 38410
L39133 38372
L39186 38335
L39291 38335
L39343 38372
" />
<path d="M39606 38860
L39606 38072
" />
<path d="M39842 38860
L39842 38447
L39816 38372
L39763 38335
L39685 38335
L39632 38372
L39606 38410
" />
<path d="M40026 38335
L40236 38335
" />
<path d="M40104 38072
L40104 38747
L40131 38822
L40183 38860
L40236 38860
" />
<path d="M40393 38822
L40446 38860
L40551 38860
L40603 38822
L40629 38747
L40629 38710
L40603 38635
L40551 38597
L40472 38597
L40419 38560
L40393 38485
L40393 38447
L40419 38372
L40472 38335
L40551 38335
L40603 38372
" />
<path d="M41286 38860
L41286 38072
" />
<path d="M41286 38372
L41338 38335
L41443 38335
L41496 38372
L41522 38410
L41548 38485
L41548 38710
L41522 38785
L41496 38822
L41443 38860
L41338 38860
L41286 38822
" />
<path d="M41732 38335
L41863 38860
" />
<path d="M41994 38335
L41863 38860
L41811 39047
L41784 39085
L41732 39122
" />
<path d="M42729 38072
L42834 38072
L42887 38110
L42939 38185
L42965 38335
L42965 38597
L42939 38747
L42887 38822
L42834 38860
L42729 38860
L42677 38822
L42624 38747
L42598 38597
L42598 38335
L42624 38185
L42677 38110
L42729 38072
" />
<path d="M43149 38335
L43254 38860
L43359 38485
L43464 38860
L43569 38335
" />
<path d="M43989 38822
L43937 38860
L43832 38860
L43779 38822
L43753 38747
L43753 38447
L43779 38372
L43832 38335
L43937 38335
L43989 38372
L44015 38447
L44015 38522
L43753 38597
" />
<path d="M44251 38335
L44251 38860
" />
<path d="M44251 38410
L44278 38372
L44330 38335
L44409 38335
L44461 38372
L44488 38447
L44488 38860
" />
</g>
<g style="fill:#000000; fill-opacity:0.0; 
stroke:#000000; stroke-width:118.11; stroke-opacity:1; 
stroke-linecap:round; stroke-linejoin:round;">
<path d="M43225 27530
L43253 27446
L43281 27418
L43338 27390
L43422 27390
L43478 27418
L43506 27446
L43534 27502
L43534 27727
L42944 27727
L42944 27530
L42972 27474
L43000 27446
L43056 27418
L43113 27418
L43169 27446
L43197 27474
L43225 27530
L43225 27727
" />
<path d="M43534 26884
L43225 26884
L43169 26912
L43141 26968
L43141 27080
L43169 27137
" />
<path d="M43506 26884
L43534 26940
L43534 27080
L43506 27137
L43450 27165
L43394 27165
L43338 27137
L43309 27080
L43309 26940
L43281 26884
" />
<path d="M43141 26687
L43141 26462
" />
<path d="M42944 26602
L43450 26602
L43506 26574
L43534 26518
L43534 26462
" />
<path d="M43141 26349
L43141 26124
" />
<path d="M42944 26265
L43450 26265
L43506 26237
L43534 26181
L43534 26124
" />
<path d="M46172 30030
L45582 30030
L45582 29890
L45610 29805
L45666 29749
L45722 29721
L45835 29693
L45919 29693
L46032 29721
L46088 29749
L46144 29805
L46172 29890
L46172 30030
" />
<path d="M46172 29440
L45582 29440
" />
<path d="M45863 29440
L45863 29102
" />
<path d="M46172 29102
L45582 29102
" />
<path d="M45582 28906
L45582 28568
" />
<path d="M46172 28737
L45582 28737
" />
<path d="M46172 28062
L46172 28399
" />
<path d="M46172 28231
L45582 28231
L45666 28287
L45722 28343
L45750 28399
" />
<path d="M46172 27500
L46172 27837
" />
<path d="M46172 27668
L45582 27668
L45666 27724
L45722 27781
L45750 27837
" />
<path d="M43383 31631
L43383 31827
" />
<path d="M43692 31827
L43101 31827
L43101 31546
" />
<path d="M43523 31349
L43523 31068
" />
<path d="M43692 31406
L43101 31209
L43692 31012
" />
<path d="M43692 30815
L43101 30815
L43692 30478
L43101 30478
" />
<path d="M43467 30196
L43467 29746
" />
<path d="M45767 33363
L45739 33419
L45739 33503
L45767 33588
L45823 33644
L45880 33672
L45992 33700
L46077 33700
L46189 33672
L46245 33644
L46302 33588
L46330 33503
L46330 33447
L46302 33363
L46273 33335
L46077 33335
L46077 33447
" />
<path d="M46330 33082
L45739 33082
L46330 32744
L45739 32744
" />
<path d="M46330 32463
L45739 32463
L45739 32322
L45767 32238
L45823 32182
L45880 32154
L45992 32125
L46077 32125
L46189 32154
L46245 32182
L46302 32238
L46330 32322
L46330 32463
" />
</g>
<g style="fill:#000000; fill-opacity:0.0; 
stroke:#000000; stroke-width:47.2441; stroke-opacity:1; 
stroke-linecap:round; stroke-linejoin:round;">
<path d="M42480 35759
L42480 34732
" />
<circle cx="42480.3" cy="36299.2" r="539.37" /> 
<path d="M43149 37334
L43149 36307
" />
<circle cx="43149.6" cy="37874" r="539.37" /> 
<path d="M41889 33354
L41889 33051
" />
<path d="M41889 30173
L41889 30476
" />
<path d="M42429 33051
L42429 30476
" />
<path d="M41350 33051
L42429 33051
" />
<path d="M41350 30476
L41350 33051
" />
<path d="M42429 30476
L41350 30476
" />
<path d="M39390 29507
L39604 29293
" />
<path d="M41639 27258
L41425 27472
" />
<path d="M39985 29674
L41806 27853
" />
<path d="M39223 28911
L39985 29674
" />
<path d="M41043 27090
L39223 28911
" />
<path d="M41806 27853
L41043 27090
" />
<path d="M40015 34318
L40787 34318
" />
<path d="M40015 35318
L40787 35318
" />
<path d="M40015 36318
L40787 36318
" />
<path d="M33673 33251
L40015 33251
" />
<path d="M33673 37385
L40015 37385
" />
<path d="M33673 37385
L33673 33251
" />
<path d="M40015 37385
L40015 33251
" />
<path d="M44803 37185
L45393 37185
" />
<path d="M46377 36692
L46377 34921
" />
<path d="M45393 34429
L44803 34429
" />
<path d="M43818 34921
L43818 36692
" />
<path d="M36606 27811
L37425 28629
" />
<path d="M36673 27744
L37491 28562
" />
<path d="M36640 27777
L37458 28596
" />
<path d="M38597 26639
L38313 26923
" />
<path d="M36514 28721
L36798 28437
" />
<path d="M37903 26513
L36389 28028
" />
<path d="M38722 27332
L37903 26513
" />
<path d="M37207 28846
L38722 27332
" />
<path d="M36389 28028
L37207 28846
" />
</g>
<g style="fill:#000000; fill-opacity:0.0; 
stroke:#000000; stroke-width:59.0551; stroke-opacity:1; 
stroke-linecap:round; stroke-linejoin:round;">
<path d="M35114 22145
L35114 25688
" />
<path d="M41200 25688
L41200 32578
" />
<path d="M39850 25688
L41200 25688
" />
<path d="M33720 25688
L33720 32578
" />
<path d="M39850 22145
L35114 22145
" />
<path d="M39850 22145
L39850 25688
" />
<path d="M35114 25688
L33720 25688
" />
<path d="M33720 32578
L41200 32578
" />
<path d="M42973 35183
L42785 35314
" />
<path d="M42973 35408
L42579 35408
L42579 35258
L42598 35221
L42617 35202
L42654 35183
L42710 35183
L42748 35202
L42767 35221
L42785 35258
L42785 35408
" />
<path d="M42710 34846
L42973 34846
" />
<path d="M42560 34940
L42842 35033
L42842 34790
" />
<path d="M43642 36994
L43455 37125
" />
<path d="M43642 37219
L43248 37219
L43248 37069
L43267 37032
L43286 37013
L43323 36994
L43380 36994
L43417 37013
L43436 37032
L43455 37069
L43455 37219
" />
<path d="M43248 36863
L43248 36619
L43398 36751
L43398 36694
L43417 36657
L43436 36638
L43473 36619
L43567 36619
L43605 36638
L43623 36657
L43642 36694
L43642 36807
L43623 36844
L43605 36863
" />
<path d="M42185 32506
L41998 32637
" />
<path d="M42185 32731
L41792 32731
L41792 32581
L41811 32544
L41829 32525
L41867 32506
L41923 32506
L41961 32525
L41979 32544
L41998 32581
L41998 32731
" />
<path d="M41829 32356
L41811 32337
L41792 32300
L41792 32206
L41811 32169
L41829 32150
L41867 32131
L41904 32131
L41961 32150
L42185 32375
L42185 32131
" />
<path d="M42314 28154
L42089 28114
" />
<path d="M42155 28313
L41877 28034
L41983 27928
L42023 27915
L42049 27915
L42089 27928
L42129 27968
L42142 28008
L42142 28034
L42129 28074
L42023 28180
" />
<path d="M42580 27889
L42420 28048
" />
<path d="M42500 27968
L42222 27690
L42235 27756
L42235 27809
L42222 27849
" />
<path d="M37380 35549
L37362 35586
L37324 35624
L37268 35680
L37249 35718
L37249 35755
" />
<path d="M37343 35736
L37324 35774
L37287 35811
L37212 35830
L37080 35830
L37005 35811
L36968 35774
L36949 35736
L36949 35661
L36968 35624
L37005 35586
L37080 35568
L37212 35568
L37287 35586
L37324 35624
L37343 35661
L37343 35736
" />
<path d="M37343 35193
L37343 35418
" />
<path d="M37343 35305
L36949 35305
L37005 35343
L37043 35380
L37062 35418
" />
<path d="M44193 30052
L44475 30052
L44531 30071
L44568 30108
L44587 30164
L44587 30202
" />
<path d="M44587 29658
L44587 29883
" />
<path d="M44587 29771
L44193 29771
L44250 29808
L44287 29846
L44306 29883
" />
<path d="M45513 36312
L45532 36256
L45532 36162
L45513 36124
L45494 36106
L45457 36087
L45419 36087
L45382 36106
L45363 36124
L45344 36162
L45326 36237
L45307 36274
L45288 36293
L45251 36312
L45213 36312
L45176 36293
L45157 36274
L45138 36237
L45138 36143
L45157 36087
" />
<path d="M45138 35956
L45532 35862
L45251 35787
L45532 35712
L45138 35618
" />
<path d="M45532 35262
L45532 35487
" />
<path d="M45532 35374
L45138 35374
L45194 35412
L45232 35449
L45251 35487
" />
<path d="M37732 27866
L37454 27588
L37520 27522
L37573 27495
L37626 27495
L37666 27508
L37732 27548
L37772 27588
L37812 27654
L37825 27694
L37825 27747
L37798 27800
L37732 27866
" />
<path d="M38156 27442
L37997 27601
" />
<path d="M38077 27522
L37798 27243
L37812 27310
L37812 27363
L37798 27402
" />
<path d="M35997 28309
L35719 28030
" />
<path d="M36156 28150
L35878 28110
" />
<path d="M35878 27871
L35878 28189
" />
<path d="M34345 30099
L34345 30418
L34364 30455
L34383 30474
L34420 30493
L34495 30493
L34533 30474
L34551 30455
L34570 30418
L34570 30099
" />
<path d="M34964 30493
L34739 30493
" />
<path d="M34851 30493
L34851 30099
L34814 30155
L34776 30193
L34739 30211
" />
<g >
</g>
</g> 
</svg>
