<?xml version="1.0" standalone="no"?>
 <!DOCTYPE svg PUBLIC "-//W3C//DTD SVG 1.1//EN" 
 "http://www.w3.org/Graphics/SVG/1.1/DTD/svg11.dtd"> 
<svg xmlns="http://www.w3.org/2000/svg" version="1.1" 
    width="29.7002cm" height="21.0007cm" viewBox="0 0 116930 82680 ">
<title>SVG Picture created as BoatFanControl-F_SilkS.svg date 2019/08/28 11:37:27 </title>
  <desc>Picture generated by PCBNEW </desc>
<g style="fill:#000000; fill-opacity:1;stroke:#000000; stroke-opacity:1;
stroke-linecap:round; stroke-linejoin:round; "
 transform="translate(0 0) scale(1 1)">
</g>
<g style="fill:#000000; fill-opacity:0.0; 
stroke:#000000; stroke-width:-0.000393701; stroke-opacity:1; 
stroke-linecap:round; stroke-linejoin:round;">
</g>
<g style="fill:#000000; fill-opacity:0.0; 
stroke:#000000; stroke-width:78.7402; stroke-opacity:1; 
stroke-linecap:round; stroke-linejoin:round;">
<path d="M43280 32581
L43359 32619
L43385 32656
L43412 32731
L43412 32844
L43385 32919
L43359 32956
L43307 32994
L43097 32994
L43097 32206
L43280 32206
L43333 32244
L43359 32281
L43385 32356
L43385 32431
L43359 32506
L43333 32544
L43280 32581
L43097 32581
" />
<path d="M43727 32994
L43674 32956
L43648 32919
L43622 32844
L43622 32619
L43648 32544
L43674 32506
L43727 32469
L43805 32469
L43858 32506
L43884 32544
L43910 32619
L43910 32844
L43884 32919
L43858 32956
L43805 32994
L43727 32994
" />
<path d="M44383 32994
L44383 32581
L44356 32506
L44304 32469
L44199 32469
L44146 32506
" />
<path d="M44383 32956
L44330 32994
L44199 32994
L44146 32956
L44120 32881
L44120 32806
L44146 32731
L44199 32694
L44330 32694
L44383 32656
" />
<path d="M44566 32469
L44776 32469
" />
<path d="M44645 32206
L44645 32881
L44671 32956
L44724 32994
L44776 32994
" />
<path d="M45564 32581
L45380 32581
" />
<path d="M45380 32994
L45380 32206
L45643 32206
" />
<path d="M46089 32994
L46089 32581
L46062 32506
L46010 32469
L45905 32469
L45853 32506
" />
<path d="M46089 32956
L46036 32994
L45905 32994
L45853 32956
L45826 32881
L45826 32806
L45853 32731
L45905 32694
L46036 32694
L46089 32656
" />
<path d="M46351 32469
L46351 32994
" />
<path d="M46351 32544
L46377 32506
L46430 32469
L46509 32469
L46561 32506
L46587 32581
L46587 32994
" />
<path d="M46257 27176
L46285 27092
L46313 27064
L46369 27035
L46453 27035
L46510 27064
L46538 27092
L46566 27148
L46566 27373
L45975 27373
L45975 27176
L46003 27120
L46032 27092
L46088 27064
L46144 27064
L46200 27092
L46228 27120
L46257 27176
L46257 27373
" />
<path d="M46566 26529
L46257 26529
L46200 26557
L46172 26614
L46172 26726
L46200 26782
" />
<path d="M46538 26529
L46566 26586
L46566 26726
L46538 26782
L46482 26811
L46425 26811
L46369 26782
L46341 26726
L46341 26586
L46313 26529
" />
<path d="M46172 26332
L46172 26107
" />
<path d="M45975 26248
L46482 26248
L46538 26220
L46566 26164
L46566 26107
" />
<path d="M46172 25995
L46172 25770
" />
<path d="M45975 25911
L46482 25911
L46538 25883
L46566 25826
L46566 25770
" />
<path d="M46217 29111
L46217 29308
" />
<path d="M46526 29308
L45936 29308
L45936 29026
" />
<path d="M46526 28548
L46217 28548
L46161 28577
L46133 28633
L46133 28745
L46161 28802
" />
<path d="M46498 28548
L46526 28605
L46526 28745
L46498 28802
L46442 28830
L46386 28830
L46330 28802
L46302 28745
L46302 28605
L46273 28548
" />
<path d="M46133 28267
L46526 28267
" />
<path d="M46189 28267
L46161 28239
L46133 28183
L46133 28098
L46161 28042
L46217 28014
L46526 28014
" />
<path d="M46003 31167
L45975 31223
L45975 31307
L46003 31392
L46060 31448
L46116 31476
L46228 31504
L46313 31504
L46425 31476
L46482 31448
L46538 31392
L46566 31307
L46566 31251
L46538 31167
L46510 31138
L46313 31138
L46313 31251
" />
<path d="M46172 30885
L46566 30885
" />
<path d="M46228 30885
L46200 30857
L46172 30801
L46172 30717
L46200 30660
L46257 30632
L46566 30632
" />
<path d="M46566 30098
L45975 30098
" />
<path d="M46538 30098
L46566 30154
L46566 30267
L46538 30323
L46510 30351
L46453 30379
L46285 30379
L46228 30351
L46200 30323
L46172 30267
L46172 30154
L46200 30098
" />
</g>
<g style="fill:#000000; fill-opacity:0.0; 
stroke:#000000; stroke-width:47.2441; stroke-opacity:1; 
stroke-linecap:round; stroke-linejoin:round;">
<path d="M39096 32643
L39370 32643
" />
<path d="M39096 32913
L39096 32643
" />
<path d="M39609 33183
L39643 33183
" />
<path d="M39096 33183
L39130 33183
" />
<path d="M39643 33183
L39643 33133
" />
<path d="M39096 33183
L39096 33133
" />
<path d="M39096 33183
L39643 33183
" />
<path d="M47047 31787
L47047 31590
" />
<path d="M46755 31787
L47047 31787
" />
<path d="M45087 27203
L45129 27245
" />
<path d="M44069 26185
L44222 26339
" />
<path d="M45190 27120
L45222 27152
" />
<path d="M44161 26092
L44299 26230
" />
<path d="M45087 29203
L45129 29245
" />
<path d="M44069 28185
L44222 28339
" />
<path d="M45190 29120
L45222 29152
" />
<path d="M44161 28092
L44299 28230
" />
<path d="M44069 30185
L44153 30270
" />
<path d="M42574 25645
L46952 25645
" />
<path d="M42574 31692
L46952 31692
" />
<path d="M46952 31692
L46952 25645
" />
<path d="M42574 31692
L42574 25645
" />
<path d="M43307 31692
L43307 25645
" />
<path d="M45748 31692
L45748 25645
" />
<path d="M46732 31692
L46732 25645
" />
<circle cx="44645.7" cy="26669.3" r="759.843" /> 
<circle cx="44645.7" cy="28669.3" r="759.843" /> 
<path d="M45368.5 30904.3 A760.088 760.088 0.0 0 0 45405.6 30656.2 " />
<path d="M44177.6 31268.1 A760.073 760.073 0.0 0 0 45113.5 31268.4 " />
<path d="M44167.3 30078.7 A759.978 759.978 0.0 0 0 44167.5 31260 " />
<path d="M45113.8 30070.5 A760.073 760.073 0.0 0 0 44177.9 30070.2 " />
<path d="M45405.5 30669.3 A759.843 759.843 0.0 0 0 45368.3 30434.5 " />
</g>
<g style="fill:#000000; fill-opacity:0.0; 
stroke:#000000; stroke-width:59.0551; stroke-opacity:1; 
stroke-linecap:round; stroke-linejoin:round;">
<path d="M36637 37707
L36037 37707
" />
<path d="M36037 37707
L36037 38907
" />
<path d="M36037 38907
L36637 38907
" />
<path d="M37137 37807
L39137 37807
" />
<path d="M39137 37807
L39137 38807
" />
<path d="M39137 38807
L37137 38807
" />
<path d="M37137 38807
L37137 37807
" />
</g>
<g style="fill:#000000; fill-opacity:0.0; 
stroke:#000000; stroke-width:47.2441; stroke-opacity:1; 
stroke-linecap:round; stroke-linejoin:round;">
<path d="M42480 35759
L42480 34732
" />
<circle cx="42480.3" cy="36299.2" r="539.37" /> 
<path d="M43149 37334
L43149 36307
" />
<circle cx="43149.6" cy="37874" r="539.37" /> 
<path d="M41889 33354
L41889 33051
" />
<path d="M41889 30173
L41889 30476
" />
<path d="M42429 33051
L42429 30476
" />
<path d="M41350 33051
L42429 33051
" />
<path d="M41350 30476
L41350 33051
" />
<path d="M42429 30476
L41350 30476
" />
<path d="M41141 29732
L41141 29429
" />
<path d="M41141 26551
L41141 26854
" />
<path d="M41681 29429
L41681 26854
" />
<path d="M40602 29429
L41681 29429
" />
<path d="M40602 26854
L40602 29429
" />
<path d="M41681 26854
L40602 26854
" />
<path d="M40015 34318
L40787 34318
" />
<path d="M40015 35318
L40787 35318
" />
<path d="M40015 36318
L40787 36318
" />
<path d="M33673 33251
L40015 33251
" />
<path d="M33673 37385
L40015 37385
" />
<path d="M33673 37385
L33673 33251
" />
<path d="M40015 37385
L40015 33251
" />
<path d="M45236 36476
L45826 36476
" />
<path d="M46811 35984
L46811 34212
" />
<path d="M45826 33720
L45236 33720
" />
<path d="M44251 34212
L44251 35984
" />
<path d="M36551 28279
L36551 29437
" />
<path d="M36645 28279
L36645 29437
" />
<path d="M36598 28279
L36598 29437
" />
<path d="M38787 28858
L38385 28858
" />
<path d="M35842 28858
L36244 28858
" />
<path d="M38385 28279
L36244 28279
" />
<path d="M38385 29437
L38385 28279
" />
<path d="M36244 29437
L38385 29437
" />
<path d="M36244 28279
L36244 29437
" />
</g>
<g style="fill:#000000; fill-opacity:0.0; 
stroke:#000000; stroke-width:59.0551; stroke-opacity:1; 
stroke-linecap:round; stroke-linejoin:round;">
<path d="M35114 22145
L35114 25688
" />
<path d="M41200 25688
L41200 32578
" />
<path d="M39850 25688
L41200 25688
" />
<path d="M33720 25688
L33720 32578
" />
<path d="M39850 22145
L35114 22145
" />
<path d="M39850 22145
L39850 25688
" />
<path d="M35114 25688
L33720 25688
" />
<path d="M33720 32578
L41200 32578
" />
<path d="M39238 32083
L39238 32364
L39220 32421
L39182 32458
L39126 32477
L39088 32477
" />
<path d="M39407 32121
L39426 32102
L39463 32083
L39557 32083
L39595 32102
L39613 32121
L39632 32158
L39632 32196
L39613 32252
L39388 32477
L39632 32477
" />
<path d="M41965 28800
L42246 28800
L42302 28819
L42340 28856
L42359 28913
L42359 28950
" />
<path d="M42359 28406
L42359 28631
" />
<path d="M42359 28519
L41965 28519
L42021 28556
L42059 28594
L42077 28631
" />
<path d="M39454 38130
L39679 38130
" />
<path d="M39566 38524
L39566 38130
" />
<path d="M39810 38524
L39810 38130
" />
<path d="M39810 38318
L40035 38318
" />
<path d="M40035 38524
L40035 38130
" />
<path d="M40429 38524
L40204 38524
" />
<path d="M40316 38524
L40316 38130
L40279 38187
L40241 38224
L40204 38243
" />
<path d="M42973 35183
L42785 35314
" />
<path d="M42973 35408
L42579 35408
L42579 35258
L42598 35221
L42617 35202
L42654 35183
L42710 35183
L42748 35202
L42767 35221
L42785 35258
L42785 35408
" />
<path d="M42710 34846
L42973 34846
" />
<path d="M42560 34940
L42842 35033
L42842 34790
" />
<path d="M43642 36994
L43455 37125
" />
<path d="M43642 37219
L43248 37219
L43248 37069
L43267 37032
L43286 37013
L43323 36994
L43380 36994
L43417 37013
L43436 37032
L43455 37069
L43455 37219
" />
<path d="M43248 36863
L43248 36619
L43398 36751
L43398 36694
L43417 36657
L43436 36638
L43473 36619
L43567 36619
L43605 36638
L43623 36657
L43642 36694
L43642 36807
L43623 36844
L43605 36863
" />
<path d="M42185 32506
L41998 32637
" />
<path d="M42185 32731
L41792 32731
L41792 32581
L41811 32544
L41829 32525
L41867 32506
L41923 32506
L41961 32525
L41979 32544
L41998 32581
L41998 32731
" />
<path d="M41829 32356
L41811 32337
L41792 32300
L41792 32206
L41811 32169
L41829 32150
L41867 32131
L41904 32131
L41961 32150
L42185 32375
L42185 32131
" />
<path d="M41004 28412
L40817 28543
" />
<path d="M41004 28637
L40611 28637
L40611 28487
L40629 28449
L40648 28430
L40686 28412
L40742 28412
L40779 28430
L40798 28449
L40817 28487
L40817 28637
" />
<path d="M41004 28037
L41004 28262
" />
<path d="M41004 28149
L40611 28149
L40667 28187
L40704 28224
L40723 28262
" />
<path d="M37380 35549
L37362 35586
L37324 35624
L37268 35680
L37249 35718
L37249 35755
" />
<path d="M37343 35736
L37324 35774
L37287 35811
L37212 35830
L37080 35830
L37005 35811
L36968 35774
L36949 35736
L36949 35661
L36968 35624
L37005 35586
L37080 35568
L37212 35568
L37287 35586
L37324 35624
L37343 35661
L37343 35736
" />
<path d="M37343 35193
L37343 35418
" />
<path d="M37343 35305
L36949 35305
L37005 35343
L37043 35380
L37062 35418
" />
<path d="M45946 35603
L45965 35547
L45965 35453
L45946 35416
L45928 35397
L45890 35378
L45853 35378
L45815 35397
L45796 35416
L45778 35453
L45759 35528
L45740 35566
L45721 35584
L45684 35603
L45646 35603
L45609 35584
L45590 35566
L45571 35528
L45571 35434
L45590 35378
" />
<path d="M45571 35247
L45965 35153
L45684 35078
L45965 35003
L45571 34910
" />
<path d="M45965 34553
L45965 34778
" />
<path d="M45965 34666
L45571 34666
L45628 34703
L45665 34741
L45684 34778
" />
<path d="M37307 29115
L37307 28721
L37401 28721
L37457 28740
L37495 28777
L37514 28815
L37532 28890
L37532 28946
L37514 29021
L37495 29058
L37457 29096
L37401 29115
L37307 29115
" />
<path d="M37907 29115
L37682 29115
" />
<path d="M37795 29115
L37795 28721
L37757 28777
L37720 28815
L37682 28833
" />
<path d="M35802 29508
L35802 29115
" />
<path d="M36027 29508
L35858 29283
" />
<path d="M36027 29115
L35802 29340
" />
<path d="M34345 30099
L34345 30418
L34364 30455
L34383 30474
L34420 30493
L34495 30493
L34533 30474
L34551 30455
L34570 30418
L34570 30099
" />
<path d="M34964 30493
L34739 30493
" />
<path d="M34851 30493
L34851 30099
L34814 30155
L34776 30193
L34739 30211
" />
<g >
</g>
</g> 
</svg>
