M48
; DRILL file {KiCad 5.1.4-1.fc30} date Tue 27 Aug 2019 20:44:44 CEST
; FORMAT={-:-/ absolute / metric / decimal}
; #@! TF.CreationDate,2019-08-27T20:44:44+02:00
; #@! TF.GenerationSoftware,Kicad,Pcbnew,5.1.4-1.fc30
FMAT,2
METRIC
T1C0.800
T2C1.016
T3C1.100
T4C1.200
T5C1.501
T6C3.200
T7C3.500
%
G90
G05
T1
X22.7Y12.48
X22.7Y7.4
X21.2Y24.0
X21.2Y13.84
X14.116Y23.916
X21.3Y31.1
X24.4Y8.48
X24.4Y3.4
T2
X2.2Y31.43
X2.2Y28.89
X2.2Y26.35
X4.7Y18.6
X7.24Y18.6
X9.78Y18.6
X12.32Y18.6
X14.86Y18.6
X17.4Y18.6
T3
X27.1Y11.9
X27.1Y5.4
X31.6Y11.9
X31.6Y5.4
X6.6Y25.7
X13.784Y32.884
T4
X19.55Y12.43
X19.55Y9.89
X19.55Y7.35
T5
X27.6Y31.24
X27.6Y26.16
X27.6Y21.08
X27.6Y16.0
T6
X3.0Y2.6
X31.0Y2.4
T7
X3.75Y9.89
T0
M30
