G04 #@! TF.GenerationSoftware,KiCad,Pcbnew,5.1.4-1.fc30*
G04 #@! TF.CreationDate,2019-08-28T11:37:06+02:00*
G04 #@! TF.ProjectId,BoatFanControl,426f6174-4661-46e4-936f-6e74726f6c2e,rev?*
G04 #@! TF.SameCoordinates,PX5140c80PY5efc680*
G04 #@! TF.FileFunction,Copper,L2,Bot*
G04 #@! TF.FilePolarity,Positive*
%FSLAX46Y46*%
G04 Gerber Fmt 4.6, Leading zero omitted, Abs format (unit mm)*
G04 Created by KiCad (PCBNEW 5.1.4-1.fc30) date 2019-08-28 11:37:06*
%MOMM*%
%LPD*%
G04 APERTURE LIST*
%ADD10O,2.500000X1.800000*%
%ADD11O,4.000000X3.000000*%
%ADD12R,4.000000X3.000000*%
%ADD13O,1.727200X2.032000*%
%ADD14R,1.727200X2.032000*%
%ADD15O,2.500000X2.000000*%
%ADD16O,4.000000X1.905000*%
%ADD17R,4.000000X1.905000*%
%ADD18O,2.000000X4.000000*%
%ADD19O,4.000000X2.200000*%
%ADD20R,4.000000X1.800000*%
%ADD21O,4.000000X1.879600*%
%ADD22O,1.879600X4.000000*%
%ADD23C,2.000000*%
%ADD24C,0.800000*%
%ADD25C,1.200000*%
G04 APERTURE END LIST*
D10*
X14800000Y16000000D03*
D11*
X28000000Y31860000D03*
X28000000Y26780000D03*
D12*
X28000000Y21700000D03*
D13*
X12940000Y2300000D03*
X10400000Y2300000D03*
D14*
X7860000Y2300000D03*
D15*
X22700000Y12480000D03*
X22700000Y7400000D03*
X24400000Y8480000D03*
X24400000Y3400000D03*
X21200000Y13840000D03*
X21200000Y24000000D03*
X19300000Y23040000D03*
X19300000Y33200000D03*
D16*
X19550000Y12430000D03*
X19550000Y9890000D03*
D17*
X19550000Y7350000D03*
D18*
X32700000Y8200000D03*
X28200000Y8200000D03*
X32700000Y12700000D03*
X28200000Y12700000D03*
D19*
X14160000Y26300000D03*
D20*
X5000000Y26300000D03*
D21*
X2200000Y31430000D03*
X2200000Y28890000D03*
X2200000Y26350000D03*
D22*
X17400000Y19600000D03*
X14860000Y19600000D03*
X12320000Y19600000D03*
X9780000Y19600000D03*
X7240000Y19600000D03*
X4700000Y19600000D03*
D23*
X5500000Y28900000D03*
X16700000Y28900000D03*
D24*
X4450000Y26350000D02*
X4500000Y26300000D01*
X2200000Y26350000D02*
X4450000Y26350000D01*
X20390000Y12430000D02*
X19550000Y12430000D01*
X21700000Y13740000D02*
X20390000Y12430000D01*
X23780000Y8480000D02*
X22700000Y7400000D01*
X24400000Y8480000D02*
X23780000Y8480000D01*
X19600000Y7400000D02*
X19550000Y7350000D01*
X22700000Y7400000D02*
X19600000Y7400000D01*
X4700000Y15861510D02*
X4700000Y18600000D01*
X17161510Y3400000D02*
X4700000Y15861510D01*
X24400000Y3400000D02*
X17161510Y3400000D01*
X26400000Y5400000D02*
X28200000Y7200000D01*
X17000000Y5400000D02*
X26400000Y5400000D01*
X12320000Y18600000D02*
X12320000Y10080000D01*
X12320000Y10080000D02*
X17000000Y5400000D01*
X28200000Y7200000D02*
X28200000Y13700000D01*
X27160000Y33200000D02*
X19300000Y33200000D01*
X28500000Y31860000D02*
X27160000Y33200000D01*
X14660000Y30610000D02*
X14660000Y26300000D01*
X17250000Y33200000D02*
X14660000Y30610000D01*
X19300000Y33200000D02*
X17250000Y33200000D01*
X7240000Y20722084D02*
X7240000Y18600000D01*
X5462074Y22500010D02*
X7240000Y20722084D01*
X3937926Y22500010D02*
X5462074Y22500010D01*
X2860190Y21422274D02*
X3937926Y22500010D01*
X2860190Y15862830D02*
X2860190Y21422274D01*
X10400000Y8323020D02*
X2860190Y15862830D01*
X10400000Y2300000D02*
X10400000Y8323020D01*
D25*
X15704916Y13448825D02*
X19100000Y16500000D01*
X15704916Y10535084D02*
X15704916Y13448825D01*
X19550000Y9890000D02*
X16350000Y9890000D01*
X16350000Y9890000D02*
X15704916Y10535084D01*
X23550010Y22730012D02*
X27599998Y26780000D01*
X27599998Y26780000D02*
X28500000Y26780000D01*
X23550010Y20950010D02*
X23550010Y22730012D01*
X19100000Y16500000D02*
X23550010Y20950010D01*
D24*
X20615795Y23415795D02*
X21200000Y24000000D01*
X20260000Y24000000D02*
X19300000Y23040000D01*
X21200000Y24000000D02*
X20260000Y24000000D01*
X9780000Y20722084D02*
X9780000Y18600000D01*
X12097916Y23040000D02*
X9780000Y20722084D01*
X19300000Y23040000D02*
X12097916Y23040000D01*
X2230000Y31400000D02*
X2200000Y31430000D01*
X1099999Y8617999D02*
X1099999Y21587915D01*
X5000000Y31430000D02*
X2200000Y31430000D01*
X8900001Y30912001D02*
X7912001Y31900001D01*
X8900001Y25679999D02*
X8900001Y30912001D01*
X5470001Y31900001D02*
X5000000Y31430000D01*
X7912001Y31900001D02*
X5470001Y31900001D01*
X7720001Y24499999D02*
X8900001Y25679999D01*
X4012083Y24499999D02*
X7720001Y24499999D01*
X1099999Y21587915D02*
X4012083Y24499999D01*
X5601998Y4116000D02*
X1099999Y8617999D01*
X6196400Y4116000D02*
X5601998Y4116000D01*
X7860000Y2452400D02*
X6196400Y4116000D01*
X7860000Y2300000D02*
X7860000Y2452400D01*
X17400000Y18250000D02*
X17400000Y18600000D01*
X15150000Y16000000D02*
X17400000Y18250000D01*
X14800000Y16000000D02*
X15150000Y16000000D01*
G36*
X32842000Y4104848D02*
G01*
X32598757Y4348091D01*
X32187983Y4622561D01*
X31731557Y4811619D01*
X31247016Y4908000D01*
X30752984Y4908000D01*
X30268443Y4811619D01*
X29812017Y4622561D01*
X29401243Y4348091D01*
X29051909Y3998757D01*
X28777439Y3587983D01*
X28588381Y3131557D01*
X28492000Y2647016D01*
X28492000Y2152984D01*
X28588381Y1668443D01*
X28777439Y1212017D01*
X29051909Y801243D01*
X29095152Y758000D01*
X11499358Y758000D01*
X11658772Y888828D01*
X11880159Y1158589D01*
X12044664Y1466359D01*
X12145966Y1800307D01*
X12171600Y2060569D01*
X12171600Y2539432D01*
X12145966Y2799694D01*
X12044664Y3133642D01*
X11880159Y3441411D01*
X11708000Y3651187D01*
X11708000Y7003719D01*
X16191183Y2520536D01*
X16232140Y2470630D01*
X16431308Y2307176D01*
X16658538Y2185719D01*
X16905097Y2110926D01*
X17097260Y2092000D01*
X17097269Y2092000D01*
X17161509Y2085673D01*
X17225749Y2092000D01*
X22755177Y2092000D01*
X22794313Y2044313D01*
X23084844Y1805881D01*
X23416307Y1628710D01*
X23775967Y1519608D01*
X24056276Y1492000D01*
X24743724Y1492000D01*
X25024033Y1519608D01*
X25383693Y1628710D01*
X25715156Y1805881D01*
X26005687Y2044313D01*
X26244119Y2334844D01*
X26421290Y2666307D01*
X26530392Y3025967D01*
X26567231Y3400000D01*
X26530392Y3774033D01*
X26434817Y4089102D01*
X26464243Y4092000D01*
X26464250Y4092000D01*
X26656413Y4110926D01*
X26902972Y4185719D01*
X27130202Y4307176D01*
X27329370Y4470630D01*
X27370327Y4520536D01*
X28138607Y5288816D01*
X28200000Y5282769D01*
X28574033Y5319608D01*
X28933693Y5428710D01*
X29265156Y5605881D01*
X29555687Y5844313D01*
X29794119Y6134844D01*
X29971290Y6466307D01*
X30080392Y6825967D01*
X30108000Y7106277D01*
X30108000Y9293724D01*
X30080392Y9574033D01*
X29971290Y9933693D01*
X29794119Y10265156D01*
X29642422Y10450000D01*
X29794119Y10634844D01*
X29971290Y10966307D01*
X30080392Y11325967D01*
X30108000Y11606277D01*
X30108000Y13793724D01*
X30080392Y14074033D01*
X29971290Y14433693D01*
X29794119Y14765156D01*
X29555687Y15055687D01*
X29265156Y15294119D01*
X28933692Y15471290D01*
X28574032Y15580392D01*
X28200000Y15617231D01*
X27825967Y15580392D01*
X27466307Y15471290D01*
X27134844Y15294119D01*
X26844313Y15055687D01*
X26605881Y14765156D01*
X26428710Y14433692D01*
X26319608Y14074032D01*
X26292000Y13793723D01*
X26292001Y11606276D01*
X26319609Y11325967D01*
X26428711Y10966307D01*
X26605882Y10634844D01*
X26757579Y10450001D01*
X26605881Y10265156D01*
X26428710Y9933692D01*
X26319608Y9574032D01*
X26305461Y9430394D01*
X26244119Y9545156D01*
X26005687Y9835687D01*
X25715156Y10074119D01*
X25383693Y10251290D01*
X25024033Y10360392D01*
X24743724Y10388000D01*
X24056276Y10388000D01*
X23775967Y10360392D01*
X23416307Y10251290D01*
X23084844Y10074119D01*
X22794313Y9835687D01*
X22555881Y9545156D01*
X22429118Y9308000D01*
X22365170Y9308000D01*
X22431080Y9525278D01*
X22467002Y9890000D01*
X22431080Y10254722D01*
X22324695Y10605427D01*
X22151934Y10928640D01*
X21919438Y11211938D01*
X21636140Y11444434D01*
X21312927Y11617195D01*
X20962222Y11723580D01*
X20688899Y11750500D01*
X18411101Y11750500D01*
X18137778Y11723580D01*
X17787073Y11617195D01*
X17463860Y11444434D01*
X17407280Y11398000D01*
X17212916Y11398000D01*
X17212916Y12776571D01*
X20082837Y15355781D01*
X20113935Y15381302D01*
X20137889Y15405256D01*
X20163092Y15427906D01*
X20190242Y15457609D01*
X24563947Y19831313D01*
X24621486Y19878534D01*
X24809933Y20108157D01*
X24949961Y20370131D01*
X25036190Y20654390D01*
X25058010Y20875932D01*
X25058010Y20875942D01*
X25065305Y20950009D01*
X25058010Y21024076D01*
X25058010Y22105379D01*
X27329749Y24377117D01*
X27381706Y24372000D01*
X28618294Y24372000D01*
X28972050Y24406842D01*
X29425960Y24544534D01*
X29844286Y24768134D01*
X30210952Y25069048D01*
X30511866Y25435714D01*
X30735466Y25854040D01*
X30873158Y26307950D01*
X30919651Y26780000D01*
X30873158Y27252050D01*
X30735466Y27705960D01*
X30511866Y28124286D01*
X30210952Y28490952D01*
X29844286Y28791866D01*
X29425960Y29015466D01*
X28972050Y29153158D01*
X28618294Y29188000D01*
X27381706Y29188000D01*
X27027950Y29153158D01*
X26574040Y29015466D01*
X26155714Y28791866D01*
X25789048Y28490952D01*
X25488134Y28124286D01*
X25264534Y27705960D01*
X25126842Y27252050D01*
X25080349Y26780000D01*
X25115049Y26427685D01*
X23267785Y24580420D01*
X23221290Y24733693D01*
X23044119Y25065156D01*
X22805687Y25355687D01*
X22515156Y25594119D01*
X22183693Y25771290D01*
X21824033Y25880392D01*
X21543724Y25908000D01*
X20856276Y25908000D01*
X20575967Y25880392D01*
X20216307Y25771290D01*
X19884844Y25594119D01*
X19594313Y25355687D01*
X19355881Y25065156D01*
X19293260Y24948000D01*
X18956276Y24948000D01*
X18675967Y24920392D01*
X18316307Y24811290D01*
X17984844Y24634119D01*
X17694313Y24395687D01*
X17655177Y24348000D01*
X15542463Y24348000D01*
X15832146Y24435874D01*
X16180982Y24622331D01*
X16486740Y24873260D01*
X16737669Y25179018D01*
X16924126Y25527854D01*
X17038945Y25906363D01*
X17077715Y26300000D01*
X17038945Y26693637D01*
X16924126Y27072146D01*
X16737669Y27420982D01*
X16486740Y27726740D01*
X16180982Y27977669D01*
X15968000Y28091510D01*
X15968000Y30068209D01*
X17721661Y31821869D01*
X17984844Y31605881D01*
X18316307Y31428710D01*
X18675967Y31319608D01*
X18956276Y31292000D01*
X19643724Y31292000D01*
X19924033Y31319608D01*
X20283693Y31428710D01*
X20615156Y31605881D01*
X20905687Y31844313D01*
X20944823Y31892000D01*
X25083501Y31892000D01*
X25080349Y31860000D01*
X25126842Y31387950D01*
X25264534Y30934040D01*
X25488134Y30515714D01*
X25789048Y30149048D01*
X26155714Y29848134D01*
X26574040Y29624534D01*
X27027950Y29486842D01*
X27381706Y29452000D01*
X28618294Y29452000D01*
X28972050Y29486842D01*
X29425960Y29624534D01*
X29844286Y29848134D01*
X30210952Y30149048D01*
X30511866Y30515714D01*
X30735466Y30934040D01*
X30873158Y31387950D01*
X30919651Y31860000D01*
X30873158Y32332050D01*
X30735466Y32785960D01*
X30511866Y33204286D01*
X30210952Y33570952D01*
X30124379Y33642000D01*
X32842001Y33642000D01*
X32842000Y4104848D01*
X32842000Y4104848D01*
G37*
X32842000Y4104848D02*
X32598757Y4348091D01*
X32187983Y4622561D01*
X31731557Y4811619D01*
X31247016Y4908000D01*
X30752984Y4908000D01*
X30268443Y4811619D01*
X29812017Y4622561D01*
X29401243Y4348091D01*
X29051909Y3998757D01*
X28777439Y3587983D01*
X28588381Y3131557D01*
X28492000Y2647016D01*
X28492000Y2152984D01*
X28588381Y1668443D01*
X28777439Y1212017D01*
X29051909Y801243D01*
X29095152Y758000D01*
X11499358Y758000D01*
X11658772Y888828D01*
X11880159Y1158589D01*
X12044664Y1466359D01*
X12145966Y1800307D01*
X12171600Y2060569D01*
X12171600Y2539432D01*
X12145966Y2799694D01*
X12044664Y3133642D01*
X11880159Y3441411D01*
X11708000Y3651187D01*
X11708000Y7003719D01*
X16191183Y2520536D01*
X16232140Y2470630D01*
X16431308Y2307176D01*
X16658538Y2185719D01*
X16905097Y2110926D01*
X17097260Y2092000D01*
X17097269Y2092000D01*
X17161509Y2085673D01*
X17225749Y2092000D01*
X22755177Y2092000D01*
X22794313Y2044313D01*
X23084844Y1805881D01*
X23416307Y1628710D01*
X23775967Y1519608D01*
X24056276Y1492000D01*
X24743724Y1492000D01*
X25024033Y1519608D01*
X25383693Y1628710D01*
X25715156Y1805881D01*
X26005687Y2044313D01*
X26244119Y2334844D01*
X26421290Y2666307D01*
X26530392Y3025967D01*
X26567231Y3400000D01*
X26530392Y3774033D01*
X26434817Y4089102D01*
X26464243Y4092000D01*
X26464250Y4092000D01*
X26656413Y4110926D01*
X26902972Y4185719D01*
X27130202Y4307176D01*
X27329370Y4470630D01*
X27370327Y4520536D01*
X28138607Y5288816D01*
X28200000Y5282769D01*
X28574033Y5319608D01*
X28933693Y5428710D01*
X29265156Y5605881D01*
X29555687Y5844313D01*
X29794119Y6134844D01*
X29971290Y6466307D01*
X30080392Y6825967D01*
X30108000Y7106277D01*
X30108000Y9293724D01*
X30080392Y9574033D01*
X29971290Y9933693D01*
X29794119Y10265156D01*
X29642422Y10450000D01*
X29794119Y10634844D01*
X29971290Y10966307D01*
X30080392Y11325967D01*
X30108000Y11606277D01*
X30108000Y13793724D01*
X30080392Y14074033D01*
X29971290Y14433693D01*
X29794119Y14765156D01*
X29555687Y15055687D01*
X29265156Y15294119D01*
X28933692Y15471290D01*
X28574032Y15580392D01*
X28200000Y15617231D01*
X27825967Y15580392D01*
X27466307Y15471290D01*
X27134844Y15294119D01*
X26844313Y15055687D01*
X26605881Y14765156D01*
X26428710Y14433692D01*
X26319608Y14074032D01*
X26292000Y13793723D01*
X26292001Y11606276D01*
X26319609Y11325967D01*
X26428711Y10966307D01*
X26605882Y10634844D01*
X26757579Y10450001D01*
X26605881Y10265156D01*
X26428710Y9933692D01*
X26319608Y9574032D01*
X26305461Y9430394D01*
X26244119Y9545156D01*
X26005687Y9835687D01*
X25715156Y10074119D01*
X25383693Y10251290D01*
X25024033Y10360392D01*
X24743724Y10388000D01*
X24056276Y10388000D01*
X23775967Y10360392D01*
X23416307Y10251290D01*
X23084844Y10074119D01*
X22794313Y9835687D01*
X22555881Y9545156D01*
X22429118Y9308000D01*
X22365170Y9308000D01*
X22431080Y9525278D01*
X22467002Y9890000D01*
X22431080Y10254722D01*
X22324695Y10605427D01*
X22151934Y10928640D01*
X21919438Y11211938D01*
X21636140Y11444434D01*
X21312927Y11617195D01*
X20962222Y11723580D01*
X20688899Y11750500D01*
X18411101Y11750500D01*
X18137778Y11723580D01*
X17787073Y11617195D01*
X17463860Y11444434D01*
X17407280Y11398000D01*
X17212916Y11398000D01*
X17212916Y12776571D01*
X20082837Y15355781D01*
X20113935Y15381302D01*
X20137889Y15405256D01*
X20163092Y15427906D01*
X20190242Y15457609D01*
X24563947Y19831313D01*
X24621486Y19878534D01*
X24809933Y20108157D01*
X24949961Y20370131D01*
X25036190Y20654390D01*
X25058010Y20875932D01*
X25058010Y20875942D01*
X25065305Y20950009D01*
X25058010Y21024076D01*
X25058010Y22105379D01*
X27329749Y24377117D01*
X27381706Y24372000D01*
X28618294Y24372000D01*
X28972050Y24406842D01*
X29425960Y24544534D01*
X29844286Y24768134D01*
X30210952Y25069048D01*
X30511866Y25435714D01*
X30735466Y25854040D01*
X30873158Y26307950D01*
X30919651Y26780000D01*
X30873158Y27252050D01*
X30735466Y27705960D01*
X30511866Y28124286D01*
X30210952Y28490952D01*
X29844286Y28791866D01*
X29425960Y29015466D01*
X28972050Y29153158D01*
X28618294Y29188000D01*
X27381706Y29188000D01*
X27027950Y29153158D01*
X26574040Y29015466D01*
X26155714Y28791866D01*
X25789048Y28490952D01*
X25488134Y28124286D01*
X25264534Y27705960D01*
X25126842Y27252050D01*
X25080349Y26780000D01*
X25115049Y26427685D01*
X23267785Y24580420D01*
X23221290Y24733693D01*
X23044119Y25065156D01*
X22805687Y25355687D01*
X22515156Y25594119D01*
X22183693Y25771290D01*
X21824033Y25880392D01*
X21543724Y25908000D01*
X20856276Y25908000D01*
X20575967Y25880392D01*
X20216307Y25771290D01*
X19884844Y25594119D01*
X19594313Y25355687D01*
X19355881Y25065156D01*
X19293260Y24948000D01*
X18956276Y24948000D01*
X18675967Y24920392D01*
X18316307Y24811290D01*
X17984844Y24634119D01*
X17694313Y24395687D01*
X17655177Y24348000D01*
X15542463Y24348000D01*
X15832146Y24435874D01*
X16180982Y24622331D01*
X16486740Y24873260D01*
X16737669Y25179018D01*
X16924126Y25527854D01*
X17038945Y25906363D01*
X17077715Y26300000D01*
X17038945Y26693637D01*
X16924126Y27072146D01*
X16737669Y27420982D01*
X16486740Y27726740D01*
X16180982Y27977669D01*
X15968000Y28091510D01*
X15968000Y30068209D01*
X17721661Y31821869D01*
X17984844Y31605881D01*
X18316307Y31428710D01*
X18675967Y31319608D01*
X18956276Y31292000D01*
X19643724Y31292000D01*
X19924033Y31319608D01*
X20283693Y31428710D01*
X20615156Y31605881D01*
X20905687Y31844313D01*
X20944823Y31892000D01*
X25083501Y31892000D01*
X25080349Y31860000D01*
X25126842Y31387950D01*
X25264534Y30934040D01*
X25488134Y30515714D01*
X25789048Y30149048D01*
X26155714Y29848134D01*
X26574040Y29624534D01*
X27027950Y29486842D01*
X27381706Y29452000D01*
X28618294Y29452000D01*
X28972050Y29486842D01*
X29425960Y29624534D01*
X29844286Y29848134D01*
X30210952Y30149048D01*
X30511866Y30515714D01*
X30735466Y30934040D01*
X30873158Y31387950D01*
X30919651Y31860000D01*
X30873158Y32332050D01*
X30735466Y32785960D01*
X30511866Y33204286D01*
X30210952Y33570952D01*
X30124379Y33642000D01*
X32842001Y33642000D01*
X32842000Y4104848D01*
G36*
X7592002Y30370209D02*
G01*
X7592001Y27888784D01*
X7506898Y27958627D01*
X7349158Y28042941D01*
X7177999Y28094862D01*
X7000000Y28112393D01*
X3815842Y28112393D01*
X3622432Y28171063D01*
X3350969Y28197800D01*
X1049031Y28197800D01*
X921149Y28185205D01*
X929245Y29593998D01*
X1049031Y29582200D01*
X3350969Y29582200D01*
X3622432Y29608937D01*
X3970744Y29714596D01*
X4291749Y29886177D01*
X4573113Y30117087D01*
X4577145Y30122000D01*
X4935757Y30122000D01*
X5000000Y30115673D01*
X5064243Y30122000D01*
X5064250Y30122000D01*
X5256413Y30140926D01*
X5502972Y30215719D01*
X5730202Y30337176D01*
X5929370Y30500630D01*
X5970328Y30550537D01*
X6011792Y30592001D01*
X7370210Y30592001D01*
X7592002Y30370209D01*
X7592002Y30370209D01*
G37*
X7592002Y30370209D02*
X7592001Y27888784D01*
X7506898Y27958627D01*
X7349158Y28042941D01*
X7177999Y28094862D01*
X7000000Y28112393D01*
X3815842Y28112393D01*
X3622432Y28171063D01*
X3350969Y28197800D01*
X1049031Y28197800D01*
X921149Y28185205D01*
X929245Y29593998D01*
X1049031Y29582200D01*
X3350969Y29582200D01*
X3622432Y29608937D01*
X3970744Y29714596D01*
X4291749Y29886177D01*
X4573113Y30117087D01*
X4577145Y30122000D01*
X4935757Y30122000D01*
X5000000Y30115673D01*
X5064243Y30122000D01*
X5064250Y30122000D01*
X5256413Y30140926D01*
X5502972Y30215719D01*
X5730202Y30337176D01*
X5929370Y30500630D01*
X5970328Y30550537D01*
X6011792Y30592001D01*
X7370210Y30592001D01*
X7592002Y30370209D01*
M02*
