G04 #@! TF.GenerationSoftware,KiCad,Pcbnew,5.1.4-1.fc30*
G04 #@! TF.CreationDate,2019-08-28T11:37:06+02:00*
G04 #@! TF.ProjectId,BoatFanControl,426f6174-4661-46e4-936f-6e74726f6c2e,rev?*
G04 #@! TF.SameCoordinates,PX5140c80PY5efc680*
G04 #@! TF.FileFunction,Legend,Top*
G04 #@! TF.FilePolarity,Positive*
%FSLAX46Y46*%
G04 Gerber Fmt 4.6, Leading zero omitted, Abs format (unit mm)*
G04 Created by KiCad (PCBNEW 5.1.4-1.fc30) date 2019-08-28 11:37:06*
%MOMM*%
%LPD*%
G04 APERTURE LIST*
%ADD10C,0.200000*%
%ADD11C,0.120000*%
%ADD12C,0.150000*%
G04 APERTURE END LIST*
D10*
X24733333Y16842858D02*
X24933333Y16747620D01*
X25000000Y16652381D01*
X25066666Y16461905D01*
X25066666Y16176191D01*
X25000000Y15985715D01*
X24933333Y15890477D01*
X24800000Y15795239D01*
X24266666Y15795239D01*
X24266666Y17795239D01*
X24733333Y17795239D01*
X24866666Y17700000D01*
X24933333Y17604762D01*
X25000000Y17414286D01*
X25000000Y17223810D01*
X24933333Y17033334D01*
X24866666Y16938096D01*
X24733333Y16842858D01*
X24266666Y16842858D01*
X25866666Y15795239D02*
X25733333Y15890477D01*
X25666666Y15985715D01*
X25600000Y16176191D01*
X25600000Y16747620D01*
X25666666Y16938096D01*
X25733333Y17033334D01*
X25866666Y17128572D01*
X26066666Y17128572D01*
X26200000Y17033334D01*
X26266666Y16938096D01*
X26333333Y16747620D01*
X26333333Y16176191D01*
X26266666Y15985715D01*
X26200000Y15890477D01*
X26066666Y15795239D01*
X25866666Y15795239D01*
X27533333Y15795239D02*
X27533333Y16842858D01*
X27466666Y17033334D01*
X27333333Y17128572D01*
X27066666Y17128572D01*
X26933333Y17033334D01*
X27533333Y15890477D02*
X27400000Y15795239D01*
X27066666Y15795239D01*
X26933333Y15890477D01*
X26866666Y16080953D01*
X26866666Y16271429D01*
X26933333Y16461905D01*
X27066666Y16557143D01*
X27400000Y16557143D01*
X27533333Y16652381D01*
X28000000Y17128572D02*
X28533333Y17128572D01*
X28200000Y17795239D02*
X28200000Y16080953D01*
X28266666Y15890477D01*
X28400000Y15795239D01*
X28533333Y15795239D01*
X30533333Y16842858D02*
X30066666Y16842858D01*
X30066666Y15795239D02*
X30066666Y17795239D01*
X30733333Y17795239D01*
X31866666Y15795239D02*
X31866666Y16842858D01*
X31800000Y17033334D01*
X31666666Y17128572D01*
X31400000Y17128572D01*
X31266666Y17033334D01*
X31866666Y15890477D02*
X31733333Y15795239D01*
X31400000Y15795239D01*
X31266666Y15890477D01*
X31200000Y16080953D01*
X31200000Y16271429D01*
X31266666Y16461905D01*
X31400000Y16557143D01*
X31733333Y16557143D01*
X31866666Y16652381D01*
X32533333Y17128572D02*
X32533333Y15795239D01*
X32533333Y16938096D02*
X32600000Y17033334D01*
X32733333Y17128572D01*
X32933333Y17128572D01*
X33066666Y17033334D01*
X33133333Y16842858D01*
X33133333Y15795239D01*
X32292857Y30571429D02*
X32364285Y30785715D01*
X32435714Y30857143D01*
X32578571Y30928572D01*
X32792857Y30928572D01*
X32935714Y30857143D01*
X33007142Y30785715D01*
X33078571Y30642858D01*
X33078571Y30071429D01*
X31578571Y30071429D01*
X31578571Y30571429D01*
X31650000Y30714286D01*
X31721428Y30785715D01*
X31864285Y30857143D01*
X32007142Y30857143D01*
X32150000Y30785715D01*
X32221428Y30714286D01*
X32292857Y30571429D01*
X32292857Y30071429D01*
X33078571Y32214286D02*
X32292857Y32214286D01*
X32150000Y32142858D01*
X32078571Y32000000D01*
X32078571Y31714286D01*
X32150000Y31571429D01*
X33007142Y32214286D02*
X33078571Y32071429D01*
X33078571Y31714286D01*
X33007142Y31571429D01*
X32864285Y31500000D01*
X32721428Y31500000D01*
X32578571Y31571429D01*
X32507142Y31714286D01*
X32507142Y32071429D01*
X32435714Y32214286D01*
X32078571Y32714286D02*
X32078571Y33285715D01*
X31578571Y32928572D02*
X32864285Y32928572D01*
X33007142Y33000000D01*
X33078571Y33142858D01*
X33078571Y33285715D01*
X32078571Y33571429D02*
X32078571Y34142858D01*
X31578571Y33785715D02*
X32864285Y33785715D01*
X33007142Y33857143D01*
X33078571Y34000000D01*
X33078571Y34142858D01*
X32192857Y25657143D02*
X32192857Y25157143D01*
X32978571Y25157143D02*
X31478571Y25157143D01*
X31478571Y25871429D01*
X32978571Y27085715D02*
X32192857Y27085715D01*
X32050000Y27014286D01*
X31978571Y26871429D01*
X31978571Y26585715D01*
X32050000Y26442858D01*
X32907142Y27085715D02*
X32978571Y26942858D01*
X32978571Y26585715D01*
X32907142Y26442858D01*
X32764285Y26371429D01*
X32621428Y26371429D01*
X32478571Y26442858D01*
X32407142Y26585715D01*
X32407142Y26942858D01*
X32335714Y27085715D01*
X31978571Y27800000D02*
X32978571Y27800000D01*
X32121428Y27800000D02*
X32050000Y27871429D01*
X31978571Y28014286D01*
X31978571Y28228572D01*
X32050000Y28371429D01*
X32192857Y28442858D01*
X32978571Y28442858D01*
X31650000Y20435715D02*
X31578571Y20292858D01*
X31578571Y20078572D01*
X31650000Y19864286D01*
X31792857Y19721429D01*
X31935714Y19650000D01*
X32221428Y19578572D01*
X32435714Y19578572D01*
X32721428Y19650000D01*
X32864285Y19721429D01*
X33007142Y19864286D01*
X33078571Y20078572D01*
X33078571Y20221429D01*
X33007142Y20435715D01*
X32935714Y20507143D01*
X32435714Y20507143D01*
X32435714Y20221429D01*
X32078571Y21150000D02*
X33078571Y21150000D01*
X32221428Y21150000D02*
X32150000Y21221429D01*
X32078571Y21364286D01*
X32078571Y21578572D01*
X32150000Y21721429D01*
X32292857Y21792858D01*
X33078571Y21792858D01*
X33078571Y23150000D02*
X31578571Y23150000D01*
X33007142Y23150000D02*
X33078571Y23007143D01*
X33078571Y22721429D01*
X33007142Y22578572D01*
X32935714Y22507143D01*
X32792857Y22435715D01*
X32364285Y22435715D01*
X32221428Y22507143D01*
X32150000Y22578572D01*
X32078571Y22721429D01*
X32078571Y23007143D01*
X32150000Y23150000D01*
D11*
X14105000Y16685000D02*
X14800000Y16685000D01*
X14105000Y16000000D02*
X14105000Y16685000D01*
X15408276Y15315000D02*
X15495000Y15315000D01*
X14105000Y15315000D02*
X14191724Y15315000D01*
X15495000Y15315000D02*
X15495000Y15440000D01*
X14105000Y15315000D02*
X14105000Y15440000D01*
X14105000Y15315000D02*
X15495000Y15315000D01*
X34300000Y18860000D02*
X34300000Y19360000D01*
X33560000Y18860000D02*
X34300000Y18860000D01*
X29321000Y30504000D02*
X29428000Y30397000D01*
X26736000Y33089000D02*
X27126000Y32698000D01*
X29583000Y30713000D02*
X29664000Y30632000D01*
X26971000Y33324000D02*
X27321000Y32974000D01*
X29321000Y25424000D02*
X29428000Y25317000D01*
X26736000Y28009000D02*
X27126000Y27618000D01*
X29583000Y25633000D02*
X29664000Y25552000D01*
X26971000Y28244000D02*
X27321000Y27894000D01*
X26736000Y22929000D02*
X26951000Y22713000D01*
X22940000Y34460000D02*
X34060000Y34460000D01*
X22940000Y19100000D02*
X34060000Y19100000D01*
X34060000Y19100000D02*
X34060000Y34460000D01*
X22940000Y19100000D02*
X22940000Y34460000D01*
X24800000Y19100000D02*
X24800000Y34460000D01*
X31000000Y19100000D02*
X31000000Y34460000D01*
X33500000Y19100000D02*
X33500000Y34460000D01*
X30130000Y31860000D02*
G75*
G03X30130000Y31860000I-1930000J0D01*
G01*
X30130000Y26780000D02*
G75*
G03X30130000Y26780000I-1930000J0D01*
G01*
X30130336Y21733269D02*
G75*
G02X30036000Y21103000I-1930336J-33269D01*
G01*
X29388175Y20178355D02*
G75*
G02X27011000Y20179000I-1188175J1521645D01*
G01*
X26985391Y20199683D02*
G75*
G02X26985000Y23200000I1214609J1500317D01*
G01*
X27011825Y23221645D02*
G75*
G02X29389000Y23221000I1188175J-1521645D01*
G01*
X30035539Y22296403D02*
G75*
G02X30130000Y21700000I-1835539J-596403D01*
G01*
D12*
X7860000Y3824000D02*
X6336000Y3824000D01*
X6336000Y3824000D02*
X6336000Y776000D01*
X6336000Y776000D02*
X7860000Y776000D01*
X9130000Y3570000D02*
X14210000Y3570000D01*
X14210000Y3570000D02*
X14210000Y1030000D01*
X14210000Y1030000D02*
X9130000Y1030000D01*
X9130000Y1030000D02*
X9130000Y3570000D01*
D11*
X22700000Y8770000D02*
X22700000Y11380000D01*
X24070000Y7400000D02*
G75*
G03X24070000Y7400000I-1370000J0D01*
G01*
X24400000Y4770000D02*
X24400000Y7380000D01*
X25770000Y3400000D02*
G75*
G03X25770000Y3400000I-1370000J0D01*
G01*
X21200000Y14880000D02*
X21200000Y15650000D01*
X21200000Y22960000D02*
X21200000Y22190000D01*
X22570000Y15650000D02*
X22570000Y22190000D01*
X19830000Y15650000D02*
X22570000Y15650000D01*
X19830000Y22190000D02*
X19830000Y15650000D01*
X22570000Y22190000D02*
X19830000Y22190000D01*
X19300000Y24080000D02*
X19300000Y24850000D01*
X19300000Y32160000D02*
X19300000Y31390000D01*
X20670000Y24850000D02*
X20670000Y31390000D01*
X17930000Y24850000D02*
X20670000Y24850000D01*
X17930000Y31390000D02*
X17930000Y24850000D01*
X20670000Y31390000D02*
X17930000Y31390000D01*
X16440000Y12430000D02*
X18400000Y12430000D01*
X16440000Y9890000D02*
X18400000Y9890000D01*
X16440000Y7350000D02*
X18400000Y7350000D01*
X330000Y15140000D02*
X16440000Y15140000D01*
X330000Y4640000D02*
X16440000Y4640000D01*
X330000Y4640000D02*
X330000Y15140000D01*
X16440000Y4640000D02*
X16440000Y15140000D01*
X29700000Y6950000D02*
X31200000Y6950000D01*
X33700000Y8200000D02*
X33700000Y12700000D01*
X31200000Y13950000D02*
X29700000Y13950000D01*
X27200000Y12700000D02*
X27200000Y8200000D01*
X7640000Y27770000D02*
X7640000Y24830000D01*
X7880000Y27770000D02*
X7880000Y24830000D01*
X7760000Y27770000D02*
X7760000Y24830000D01*
X13320000Y26300000D02*
X12300000Y26300000D01*
X5840000Y26300000D02*
X6860000Y26300000D01*
X12300000Y27770000D02*
X6860000Y27770000D01*
X12300000Y24830000D02*
X12300000Y27770000D01*
X6860000Y24830000D02*
X12300000Y24830000D01*
X6860000Y27770000D02*
X6860000Y24830000D01*
D12*
X3990000Y43350000D02*
X3990000Y34350000D01*
X19450000Y34350000D02*
X19450000Y16850000D01*
X16020000Y34350000D02*
X19450000Y34350000D01*
X450000Y34350000D02*
X450000Y16850000D01*
X16020000Y43350000D02*
X3990000Y43350000D01*
X16020000Y43350000D02*
X16020000Y34350000D01*
X3990000Y34350000D02*
X450000Y34350000D01*
X450000Y16850000D02*
X19450000Y16850000D01*
X14466666Y18107620D02*
X14466666Y17393334D01*
X14419047Y17250477D01*
X14323809Y17155239D01*
X14180952Y17107620D01*
X14085714Y17107620D01*
X14895238Y18012381D02*
X14942857Y18060000D01*
X15038095Y18107620D01*
X15276190Y18107620D01*
X15371428Y18060000D01*
X15419047Y18012381D01*
X15466666Y17917143D01*
X15466666Y17821905D01*
X15419047Y17679048D01*
X14847619Y17107620D01*
X15466666Y17107620D01*
X21392380Y26446667D02*
X22106666Y26446667D01*
X22249523Y26399048D01*
X22344761Y26303810D01*
X22392380Y26160953D01*
X22392380Y26065715D01*
X22392380Y27446667D02*
X22392380Y26875239D01*
X22392380Y27160953D02*
X21392380Y27160953D01*
X21535238Y27065715D01*
X21630476Y26970477D01*
X21678095Y26875239D01*
X15014285Y2747620D02*
X15585714Y2747620D01*
X15300000Y1747620D02*
X15300000Y2747620D01*
X15919047Y1747620D02*
X15919047Y2747620D01*
X15919047Y2271429D02*
X16490476Y2271429D01*
X16490476Y1747620D02*
X16490476Y2747620D01*
X17490476Y1747620D02*
X16919047Y1747620D01*
X17204761Y1747620D02*
X17204761Y2747620D01*
X17109523Y2604762D01*
X17014285Y2509524D01*
X16919047Y2461905D01*
X23952380Y10233334D02*
X23476190Y9900000D01*
X23952380Y9661905D02*
X22952380Y9661905D01*
X22952380Y10042858D01*
X23000000Y10138096D01*
X23047619Y10185715D01*
X23142857Y10233334D01*
X23285714Y10233334D01*
X23380952Y10185715D01*
X23428571Y10138096D01*
X23476190Y10042858D01*
X23476190Y9661905D01*
X23285714Y11090477D02*
X23952380Y11090477D01*
X22904761Y10852381D02*
X23619047Y10614286D01*
X23619047Y11233334D01*
X25652380Y5633334D02*
X25176190Y5300000D01*
X25652380Y5061905D02*
X24652380Y5061905D01*
X24652380Y5442858D01*
X24700000Y5538096D01*
X24747619Y5585715D01*
X24842857Y5633334D01*
X24985714Y5633334D01*
X25080952Y5585715D01*
X25128571Y5538096D01*
X25176190Y5442858D01*
X25176190Y5061905D01*
X24652380Y5966667D02*
X24652380Y6585715D01*
X25033333Y6252381D01*
X25033333Y6395239D01*
X25080952Y6490477D01*
X25128571Y6538096D01*
X25223809Y6585715D01*
X25461904Y6585715D01*
X25557142Y6538096D01*
X25604761Y6490477D01*
X25652380Y6395239D01*
X25652380Y6109524D01*
X25604761Y6014286D01*
X25557142Y5966667D01*
X21952380Y17033334D02*
X21476190Y16700000D01*
X21952380Y16461905D02*
X20952380Y16461905D01*
X20952380Y16842858D01*
X21000000Y16938096D01*
X21047619Y16985715D01*
X21142857Y17033334D01*
X21285714Y17033334D01*
X21380952Y16985715D01*
X21428571Y16938096D01*
X21476190Y16842858D01*
X21476190Y16461905D01*
X21047619Y17414286D02*
X21000000Y17461905D01*
X20952380Y17557143D01*
X20952380Y17795239D01*
X21000000Y17890477D01*
X21047619Y17938096D01*
X21142857Y17985715D01*
X21238095Y17985715D01*
X21380952Y17938096D01*
X21952380Y17366667D01*
X21952380Y17985715D01*
X18952380Y27433334D02*
X18476190Y27100000D01*
X18952380Y26861905D02*
X17952380Y26861905D01*
X17952380Y27242858D01*
X18000000Y27338096D01*
X18047619Y27385715D01*
X18142857Y27433334D01*
X18285714Y27433334D01*
X18380952Y27385715D01*
X18428571Y27338096D01*
X18476190Y27242858D01*
X18476190Y26861905D01*
X18952380Y28385715D02*
X18952380Y27814286D01*
X18952380Y28100000D02*
X17952380Y28100000D01*
X18095238Y28004762D01*
X18190476Y27909524D01*
X18238095Y27814286D01*
X9747619Y9304762D02*
X9700000Y9209524D01*
X9604761Y9114286D01*
X9461904Y8971429D01*
X9414285Y8876191D01*
X9414285Y8780953D01*
X9652380Y8828572D02*
X9604761Y8733334D01*
X9509523Y8638096D01*
X9319047Y8590477D01*
X8985714Y8590477D01*
X8795238Y8638096D01*
X8700000Y8733334D01*
X8652380Y8828572D01*
X8652380Y9019048D01*
X8700000Y9114286D01*
X8795238Y9209524D01*
X8985714Y9257143D01*
X9319047Y9257143D01*
X9509523Y9209524D01*
X9604761Y9114286D01*
X9652380Y9019048D01*
X9652380Y8828572D01*
X9652380Y10209524D02*
X9652380Y9638096D01*
X9652380Y9923810D02*
X8652380Y9923810D01*
X8795238Y9828572D01*
X8890476Y9733334D01*
X8938095Y9638096D01*
X31504761Y9166667D02*
X31552380Y9309524D01*
X31552380Y9547620D01*
X31504761Y9642858D01*
X31457142Y9690477D01*
X31361904Y9738096D01*
X31266666Y9738096D01*
X31171428Y9690477D01*
X31123809Y9642858D01*
X31076190Y9547620D01*
X31028571Y9357143D01*
X30980952Y9261905D01*
X30933333Y9214286D01*
X30838095Y9166667D01*
X30742857Y9166667D01*
X30647619Y9214286D01*
X30600000Y9261905D01*
X30552380Y9357143D01*
X30552380Y9595239D01*
X30600000Y9738096D01*
X30552380Y10071429D02*
X31552380Y10309524D01*
X30838095Y10500000D01*
X31552380Y10690477D01*
X30552380Y10928572D01*
X31552380Y11833334D02*
X31552380Y11261905D01*
X31552380Y11547620D02*
X30552380Y11547620D01*
X30695238Y11452381D01*
X30790476Y11357143D01*
X30838095Y11261905D01*
X9561904Y25647620D02*
X9561904Y26647620D01*
X9800000Y26647620D01*
X9942857Y26600000D01*
X10038095Y26504762D01*
X10085714Y26409524D01*
X10133333Y26219048D01*
X10133333Y26076191D01*
X10085714Y25885715D01*
X10038095Y25790477D01*
X9942857Y25695239D01*
X9800000Y25647620D01*
X9561904Y25647620D01*
X11085714Y25647620D02*
X10514285Y25647620D01*
X10800000Y25647620D02*
X10800000Y26647620D01*
X10704761Y26504762D01*
X10609523Y26409524D01*
X10514285Y26361905D01*
X5738095Y24647620D02*
X5738095Y25647620D01*
X6309523Y24647620D02*
X5880952Y25219048D01*
X6309523Y25647620D02*
X5738095Y25076191D01*
X2038095Y23147620D02*
X2038095Y22338096D01*
X2085714Y22242858D01*
X2133333Y22195239D01*
X2228571Y22147620D01*
X2419047Y22147620D01*
X2514285Y22195239D01*
X2561904Y22242858D01*
X2609523Y22338096D01*
X2609523Y23147620D01*
X3609523Y22147620D02*
X3038095Y22147620D01*
X3323809Y22147620D02*
X3323809Y23147620D01*
X3228571Y23004762D01*
X3133333Y22909524D01*
X3038095Y22861905D01*
M02*
