M48
; DRILL file {KiCad 5.1.4-1.fc30} date Wed 28 Aug 2019 11:37:14 CEST
; FORMAT={-:-/ absolute / metric / decimal}
; #@! TF.CreationDate,2019-08-28T11:37:14+02:00
; #@! TF.GenerationSoftware,Kicad,Pcbnew,5.1.4-1.fc30
FMAT,2
METRIC
T1C0.500
T2C0.800
T3C1.016
T4C1.100
T5C1.200
T6C1.400
T7C3.200
T8C3.500
%
G90
G05
T1
X14.8Y16.0
T2
X5.5Y28.9
X16.7Y28.9
X21.2Y24.0
X21.2Y13.84
X22.7Y12.48
X22.7Y7.4
X24.4Y8.48
X24.4Y3.4
X19.3Y33.2
X19.3Y23.04
T3
X7.86Y2.3
X10.4Y2.3
X12.94Y2.3
X2.2Y31.43
X2.2Y28.89
X2.2Y26.35
X4.7Y18.6
X7.24Y18.6
X9.78Y18.6
X12.32Y18.6
X14.86Y18.6
X17.4Y18.6
T4
X4.5Y26.3
X14.66Y26.3
X28.2Y13.7
X28.2Y7.2
X32.7Y13.7
X32.7Y7.2
T5
X19.55Y12.43
X19.55Y9.89
X19.55Y7.35
T6
X28.5Y31.86
X28.5Y26.78
X28.5Y21.7
T7
X31.0Y2.4
X3.0Y2.6
T8
X3.75Y9.89
T0
M30
