G04 #@! TF.GenerationSoftware,KiCad,Pcbnew,5.1.6-1.fc32*
G04 #@! TF.CreationDate,2020-06-22T17:05:16+02:00*
G04 #@! TF.ProjectId,BoatFanControl,426f6174-4661-46e4-936f-6e74726f6c2e,rev?*
G04 #@! TF.SameCoordinates,PX5140c80PY5efc680*
G04 #@! TF.FileFunction,Copper,L2,Bot*
G04 #@! TF.FilePolarity,Positive*
%FSLAX46Y46*%
G04 Gerber Fmt 4.6, Leading zero omitted, Abs format (unit mm)*
G04 Created by KiCad (PCBNEW 5.1.6-1.fc32) date 2020-06-22 17:05:16*
%MOMM*%
%LPD*%
G01*
G04 APERTURE LIST*
G04 #@! TA.AperFunction,ComponentPad*
%ADD10O,2.500000X1.600000*%
G04 #@! TD*
G04 #@! TA.AperFunction,ComponentPad*
%ADD11O,3.000000X1.800000*%
G04 #@! TD*
G04 #@! TA.AperFunction,ComponentPad*
%ADD12O,1.800000X3.000000*%
G04 #@! TD*
G04 #@! TA.AperFunction,ComponentPad*
%ADD13O,1.727200X3.000000*%
G04 #@! TD*
G04 #@! TA.AperFunction,ComponentPad*
%ADD14R,1.727200X3.000000*%
G04 #@! TD*
G04 #@! TA.AperFunction,ComponentPad*
%ADD15O,4.000000X2.200000*%
G04 #@! TD*
G04 #@! TA.AperFunction,ComponentPad*
%ADD16R,1.800000X4.000000*%
G04 #@! TD*
G04 #@! TA.AperFunction,ComponentPad*
%ADD17O,2.500000X1.800000*%
G04 #@! TD*
G04 #@! TA.AperFunction,ComponentPad*
%ADD18O,4.000000X3.000000*%
G04 #@! TD*
G04 #@! TA.AperFunction,ComponentPad*
%ADD19R,4.000000X3.000000*%
G04 #@! TD*
G04 #@! TA.AperFunction,ComponentPad*
%ADD20O,2.500000X2.000000*%
G04 #@! TD*
G04 #@! TA.AperFunction,ComponentPad*
%ADD21O,4.000000X1.905000*%
G04 #@! TD*
G04 #@! TA.AperFunction,ComponentPad*
%ADD22R,4.000000X1.905000*%
G04 #@! TD*
G04 #@! TA.AperFunction,ComponentPad*
%ADD23O,2.000000X4.000000*%
G04 #@! TD*
G04 #@! TA.AperFunction,ComponentPad*
%ADD24R,4.000000X1.800000*%
G04 #@! TD*
G04 #@! TA.AperFunction,ViaPad*
%ADD25C,2.000000*%
G04 #@! TD*
G04 #@! TA.AperFunction,Conductor*
%ADD26C,0.800000*%
G04 #@! TD*
G04 #@! TA.AperFunction,Conductor*
%ADD27C,1.200000*%
G04 #@! TD*
G04 APERTURE END LIST*
D10*
X26000000Y3500000D03*
X25000000Y13660000D03*
X23250000Y13660000D03*
X22250000Y3500000D03*
D11*
X2200000Y31430000D03*
X2200000Y28890000D03*
X2200000Y26350000D03*
D12*
X17400000Y18600000D03*
X14860000Y19100000D03*
X12320000Y18600000D03*
X9780000Y18600000D03*
X7240000Y18600000D03*
X4700000Y18600000D03*
D13*
X12940000Y2300000D03*
X10400000Y2300000D03*
D14*
X7860000Y2300000D03*
D15*
X21750000Y33410000D03*
D16*
X21250000Y23750000D03*
D17*
X14500000Y16000000D03*
D18*
X28000000Y31860000D03*
X28000000Y26780000D03*
D19*
X28000000Y21700000D03*
G04 #@! TA.AperFunction,ComponentPad*
G36*
G01*
X23403875Y16699678D02*
X23757428Y17053232D01*
G75*
G02*
X25171642Y17053232I707107J-707107D01*
G01*
X25171642Y17053232D01*
G75*
G02*
X25171642Y15639018I-707107J-707107D01*
G01*
X24818088Y15285464D01*
G75*
G02*
X23403874Y15285464I-707107J707107D01*
G01*
X23403874Y15285464D01*
G75*
G02*
X23403874Y16699678I707107J707107D01*
G01*
G37*
G04 #@! TD.AperFunction*
G04 #@! TA.AperFunction,ComponentPad*
G36*
G01*
X15866117Y23530330D02*
X16219670Y23883884D01*
G75*
G02*
X17633884Y23883884I707107J-707107D01*
G01*
X17633884Y23883884D01*
G75*
G02*
X17633884Y22469670I-707107J-707107D01*
G01*
X17280330Y22116116D01*
G75*
G02*
X15866116Y22116116I-707107J707107D01*
G01*
X15866116Y22116116D01*
G75*
G02*
X15866116Y23530330I707107J707107D01*
G01*
G37*
G04 #@! TD.AperFunction*
D20*
X18000000Y23040000D03*
X18000000Y33200000D03*
D21*
X18550000Y12430000D03*
X18550000Y9890000D03*
D22*
X18550000Y7350000D03*
D23*
X32700000Y8200000D03*
X28200000Y8200000D03*
X32700000Y12700000D03*
X28200000Y12700000D03*
D15*
X14160000Y26250000D03*
D24*
X5000000Y26250000D03*
D25*
X5500000Y28900000D03*
X15000000Y29750000D03*
D26*
X25500000Y13660000D02*
X22750000Y13660000D01*
X22750000Y13660000D02*
X22750000Y8750000D01*
X21350000Y7350000D02*
X19550000Y7350000D01*
X22750000Y8750000D02*
X21350000Y7350000D01*
X28200000Y13700000D02*
X28200000Y7200000D01*
X12320000Y9007498D02*
X12320000Y18600000D01*
X15829999Y5497499D02*
X12320000Y9007498D01*
X22335989Y5497499D02*
X15829999Y5497499D01*
X28200000Y11361510D02*
X22335989Y5497499D01*
X28200000Y13700000D02*
X28200000Y11361510D01*
X10400000Y7162002D02*
X10400000Y2300000D01*
X2899990Y14662012D02*
X10400000Y7162002D01*
X2899990Y19945588D02*
X2899990Y14662012D01*
X3954412Y21000010D02*
X2899990Y19945588D01*
X7139990Y21000010D02*
X3954412Y21000010D01*
X7240000Y20900000D02*
X7139990Y21000010D01*
X7240000Y18600000D02*
X7240000Y20900000D01*
X2230000Y31400000D02*
X2200000Y31430000D01*
X5000000Y31430000D02*
X2200000Y31430000D01*
X8900001Y30912001D02*
X7912001Y31900001D01*
X8900001Y25679999D02*
X8900001Y30912001D01*
X5470001Y31900001D02*
X5000000Y31430000D01*
X7912001Y31900001D02*
X5470001Y31900001D01*
X7417998Y2300000D02*
X7860000Y2300000D01*
X1099999Y8617999D02*
X7417998Y2300000D01*
X1099999Y19984088D02*
X1099999Y8617999D01*
X3415931Y22300020D02*
X1099999Y19984088D01*
X5520022Y22300020D02*
X3415931Y22300020D01*
X8900001Y25679999D02*
X5520022Y22300020D01*
X14905598Y16000000D02*
X14500000Y16000000D01*
X17400000Y18494402D02*
X14905598Y16000000D01*
X17400000Y18600000D02*
X17400000Y18494402D01*
X12099999Y28587999D02*
X14437998Y26250000D01*
X14437998Y26250000D02*
X14660000Y26250000D01*
X12099999Y30849999D02*
X12099999Y28587999D01*
X14450000Y33200000D02*
X12099999Y30849999D01*
X16500000Y33200000D02*
X14450000Y33200000D01*
X21250000Y33410000D02*
X16500000Y33200000D01*
X27160000Y33200000D02*
X21250000Y33410000D01*
X28500000Y31860000D02*
X27160000Y33200000D01*
D27*
X24780000Y26780000D02*
X21250000Y23250000D01*
X28500000Y26780000D02*
X24780000Y26780000D01*
X17139813Y9890000D02*
X19550000Y9890000D01*
X15449990Y11579823D02*
X17139813Y9890000D01*
X15449990Y13280177D02*
X15449990Y11579823D01*
X18169803Y15999990D02*
X15449990Y13280177D01*
X18228431Y15999990D02*
X18169803Y15999990D01*
X20350010Y18121569D02*
X18228431Y15999990D01*
X20350010Y22350010D02*
X20350010Y18121569D01*
X21250000Y23250000D02*
X20350010Y22350010D01*
D26*
X16790000Y23040000D02*
X16750000Y23000000D01*
X18000000Y23040000D02*
X16790000Y23040000D01*
X9780000Y19929077D02*
X9780000Y18600000D01*
X12850923Y23000000D02*
X9780000Y19929077D01*
X16750000Y23000000D02*
X12850923Y23000000D01*
X4700000Y14789008D02*
X4700000Y18600000D01*
X15989008Y3500000D02*
X4700000Y14789008D01*
X22750000Y3500000D02*
X15989008Y3500000D01*
X4400000Y26350000D02*
X4500000Y26250000D01*
X2200000Y26350000D02*
X4400000Y26350000D01*
G36*
X32842000Y4304848D02*
G01*
X32598757Y4548091D01*
X32187983Y4822561D01*
X31731557Y5011619D01*
X31247016Y5108000D01*
X30752984Y5108000D01*
X30268443Y5011619D01*
X29812017Y4822561D01*
X29401243Y4548091D01*
X29051909Y4198757D01*
X28777439Y3787983D01*
X28588381Y3331557D01*
X28492000Y2847016D01*
X28492000Y2352984D01*
X28588381Y1868443D01*
X28777439Y1412017D01*
X29051909Y1001243D01*
X29295152Y758000D01*
X11924743Y758000D01*
X12044664Y982358D01*
X12145966Y1316306D01*
X12171600Y1576568D01*
X12171600Y3023432D01*
X12145966Y3283694D01*
X12044664Y3617642D01*
X11880159Y3925411D01*
X11708000Y4135187D01*
X11708000Y5931216D01*
X15018685Y2620531D01*
X15059638Y2570630D01*
X15109539Y2529677D01*
X15109543Y2529673D01*
X15258806Y2407176D01*
X15486036Y2285719D01*
X15732595Y2210926D01*
X15924758Y2192000D01*
X15924767Y2192000D01*
X15989007Y2185673D01*
X16053247Y2192000D01*
X20701467Y2192000D01*
X20846495Y2072979D01*
X21143214Y1914379D01*
X21465174Y1816714D01*
X21716096Y1792000D01*
X22783904Y1792000D01*
X23034826Y1816714D01*
X23356786Y1914379D01*
X23653505Y2072979D01*
X23913582Y2286418D01*
X24127021Y2546495D01*
X24285621Y2843214D01*
X24383286Y3165174D01*
X24416264Y3500000D01*
X24383286Y3834826D01*
X24285621Y4156786D01*
X24127021Y4453505D01*
X23913582Y4713582D01*
X23653505Y4927021D01*
X23628609Y4940328D01*
X26292001Y7603720D01*
X26292001Y7106276D01*
X26319609Y6825967D01*
X26428711Y6466307D01*
X26605882Y6134844D01*
X26844314Y5844313D01*
X27134845Y5605881D01*
X27466308Y5428710D01*
X27825968Y5319608D01*
X28200000Y5282769D01*
X28574033Y5319608D01*
X28933693Y5428710D01*
X29265156Y5605881D01*
X29555687Y5844313D01*
X29794119Y6134844D01*
X29971290Y6466307D01*
X30080392Y6825967D01*
X30108000Y7106277D01*
X30108000Y9293724D01*
X30080392Y9574033D01*
X29971290Y9933693D01*
X29794119Y10265156D01*
X29642422Y10450000D01*
X29794119Y10634844D01*
X29971290Y10966307D01*
X30080392Y11325967D01*
X30108000Y11606277D01*
X30108000Y13793724D01*
X30080392Y14074033D01*
X29971290Y14433693D01*
X29794119Y14765156D01*
X29555687Y15055687D01*
X29265156Y15294119D01*
X28933692Y15471290D01*
X28574032Y15580392D01*
X28200000Y15617231D01*
X27825967Y15580392D01*
X27466307Y15471290D01*
X27134844Y15294119D01*
X26844313Y15055687D01*
X26679223Y14854524D01*
X26663582Y14873582D01*
X26403505Y15087021D01*
X26106786Y15245621D01*
X25784826Y15343286D01*
X25533904Y15368000D01*
X24466096Y15368000D01*
X24215174Y15343286D01*
X24125000Y15315932D01*
X24034826Y15343286D01*
X23783904Y15368000D01*
X22716096Y15368000D01*
X22465174Y15343286D01*
X22143214Y15245621D01*
X21846495Y15087021D01*
X21586418Y14873582D01*
X21372979Y14613505D01*
X21214379Y14316786D01*
X21116714Y13994826D01*
X21083736Y13660000D01*
X21116714Y13325174D01*
X21214379Y13003214D01*
X21372979Y12706495D01*
X21442000Y12622392D01*
X21442001Y10143842D01*
X21431080Y10254722D01*
X21324695Y10605427D01*
X21151934Y10928640D01*
X20919438Y11211938D01*
X20636140Y11444434D01*
X20312927Y11617195D01*
X19962222Y11723580D01*
X19688899Y11750500D01*
X17411947Y11750500D01*
X16957990Y12204456D01*
X16957990Y12655544D01*
X19010626Y14708179D01*
X19070284Y14740067D01*
X19299907Y14928514D01*
X19347133Y14986059D01*
X21363946Y17002871D01*
X21421486Y17050093D01*
X21609933Y17279716D01*
X21749961Y17541690D01*
X21836190Y17825949D01*
X21858010Y18047491D01*
X21865306Y18121569D01*
X21858010Y18195647D01*
X21858010Y20837607D01*
X22150000Y20837607D01*
X22327999Y20855138D01*
X22499158Y20907059D01*
X22656898Y20991373D01*
X22795159Y21104841D01*
X22908627Y21243102D01*
X22992941Y21400842D01*
X23044862Y21572001D01*
X23062393Y21750000D01*
X23062393Y22929760D01*
X25404634Y25272000D01*
X25622490Y25272000D01*
X25789048Y25069048D01*
X26155714Y24768134D01*
X26574040Y24544534D01*
X27027950Y24406842D01*
X27381706Y24372000D01*
X28618294Y24372000D01*
X28972050Y24406842D01*
X29425960Y24544534D01*
X29844286Y24768134D01*
X30210952Y25069048D01*
X30511866Y25435714D01*
X30735466Y25854040D01*
X30873158Y26307950D01*
X30919651Y26780000D01*
X30873158Y27252050D01*
X30735466Y27705960D01*
X30511866Y28124286D01*
X30210952Y28490952D01*
X29844286Y28791866D01*
X29425960Y29015466D01*
X28972050Y29153158D01*
X28618294Y29188000D01*
X27381706Y29188000D01*
X27027950Y29153158D01*
X26574040Y29015466D01*
X26155714Y28791866D01*
X25789048Y28490952D01*
X25622490Y28288000D01*
X24854070Y28288000D01*
X24780000Y28295295D01*
X24705930Y28288000D01*
X24705922Y28288000D01*
X24509686Y28268672D01*
X24484379Y28266180D01*
X24200121Y28179951D01*
X23938147Y28039923D01*
X23708524Y27851476D01*
X23661302Y27793936D01*
X22469350Y26601983D01*
X22327999Y26644862D01*
X22150000Y26662393D01*
X20350000Y26662393D01*
X20172001Y26644862D01*
X20000842Y26592941D01*
X19843102Y26508627D01*
X19704841Y26395159D01*
X19591373Y26256898D01*
X19507059Y26099158D01*
X19455138Y25927999D01*
X19437607Y25750000D01*
X19437607Y24533626D01*
X19315156Y24634119D01*
X18983693Y24811290D01*
X18624033Y24920392D01*
X18343724Y24948000D01*
X17660593Y24948000D01*
X17660468Y24948067D01*
X17300810Y25057168D01*
X16926777Y25094008D01*
X16689780Y25070665D01*
X16737669Y25129018D01*
X16924126Y25477854D01*
X17038945Y25856363D01*
X17077715Y26250000D01*
X17038945Y26643637D01*
X16924126Y27022146D01*
X16737669Y27370982D01*
X16486740Y27676740D01*
X16180982Y27927669D01*
X15832146Y28114126D01*
X15453637Y28228945D01*
X15158638Y28258000D01*
X14279789Y28258000D01*
X13407999Y29129790D01*
X13407999Y30308208D01*
X14991792Y31892000D01*
X16355177Y31892000D01*
X16394313Y31844313D01*
X16684844Y31605881D01*
X17016307Y31428710D01*
X17375967Y31319608D01*
X17656276Y31292000D01*
X18343724Y31292000D01*
X18624033Y31319608D01*
X18983693Y31428710D01*
X19315156Y31605881D01*
X19599127Y31838930D01*
X19729018Y31732331D01*
X20077854Y31545874D01*
X20456363Y31431055D01*
X20751362Y31402000D01*
X22748638Y31402000D01*
X23043637Y31431055D01*
X23422146Y31545874D01*
X23770982Y31732331D01*
X24076740Y31983260D01*
X24090673Y32000237D01*
X25090662Y31964705D01*
X25080349Y31860000D01*
X25126842Y31387950D01*
X25264534Y30934040D01*
X25488134Y30515714D01*
X25789048Y30149048D01*
X26155714Y29848134D01*
X26574040Y29624534D01*
X27027950Y29486842D01*
X27381706Y29452000D01*
X28618294Y29452000D01*
X28972050Y29486842D01*
X29425960Y29624534D01*
X29844286Y29848134D01*
X30210952Y30149048D01*
X30511866Y30515714D01*
X30735466Y30934040D01*
X30873158Y31387950D01*
X30919651Y31860000D01*
X30873158Y32332050D01*
X30735466Y32785960D01*
X30511866Y33204286D01*
X30210952Y33570952D01*
X30124379Y33642000D01*
X32842001Y33642000D01*
X32842000Y4304848D01*
G37*
X32842000Y4304848D02*
X32598757Y4548091D01*
X32187983Y4822561D01*
X31731557Y5011619D01*
X31247016Y5108000D01*
X30752984Y5108000D01*
X30268443Y5011619D01*
X29812017Y4822561D01*
X29401243Y4548091D01*
X29051909Y4198757D01*
X28777439Y3787983D01*
X28588381Y3331557D01*
X28492000Y2847016D01*
X28492000Y2352984D01*
X28588381Y1868443D01*
X28777439Y1412017D01*
X29051909Y1001243D01*
X29295152Y758000D01*
X11924743Y758000D01*
X12044664Y982358D01*
X12145966Y1316306D01*
X12171600Y1576568D01*
X12171600Y3023432D01*
X12145966Y3283694D01*
X12044664Y3617642D01*
X11880159Y3925411D01*
X11708000Y4135187D01*
X11708000Y5931216D01*
X15018685Y2620531D01*
X15059638Y2570630D01*
X15109539Y2529677D01*
X15109543Y2529673D01*
X15258806Y2407176D01*
X15486036Y2285719D01*
X15732595Y2210926D01*
X15924758Y2192000D01*
X15924767Y2192000D01*
X15989007Y2185673D01*
X16053247Y2192000D01*
X20701467Y2192000D01*
X20846495Y2072979D01*
X21143214Y1914379D01*
X21465174Y1816714D01*
X21716096Y1792000D01*
X22783904Y1792000D01*
X23034826Y1816714D01*
X23356786Y1914379D01*
X23653505Y2072979D01*
X23913582Y2286418D01*
X24127021Y2546495D01*
X24285621Y2843214D01*
X24383286Y3165174D01*
X24416264Y3500000D01*
X24383286Y3834826D01*
X24285621Y4156786D01*
X24127021Y4453505D01*
X23913582Y4713582D01*
X23653505Y4927021D01*
X23628609Y4940328D01*
X26292001Y7603720D01*
X26292001Y7106276D01*
X26319609Y6825967D01*
X26428711Y6466307D01*
X26605882Y6134844D01*
X26844314Y5844313D01*
X27134845Y5605881D01*
X27466308Y5428710D01*
X27825968Y5319608D01*
X28200000Y5282769D01*
X28574033Y5319608D01*
X28933693Y5428710D01*
X29265156Y5605881D01*
X29555687Y5844313D01*
X29794119Y6134844D01*
X29971290Y6466307D01*
X30080392Y6825967D01*
X30108000Y7106277D01*
X30108000Y9293724D01*
X30080392Y9574033D01*
X29971290Y9933693D01*
X29794119Y10265156D01*
X29642422Y10450000D01*
X29794119Y10634844D01*
X29971290Y10966307D01*
X30080392Y11325967D01*
X30108000Y11606277D01*
X30108000Y13793724D01*
X30080392Y14074033D01*
X29971290Y14433693D01*
X29794119Y14765156D01*
X29555687Y15055687D01*
X29265156Y15294119D01*
X28933692Y15471290D01*
X28574032Y15580392D01*
X28200000Y15617231D01*
X27825967Y15580392D01*
X27466307Y15471290D01*
X27134844Y15294119D01*
X26844313Y15055687D01*
X26679223Y14854524D01*
X26663582Y14873582D01*
X26403505Y15087021D01*
X26106786Y15245621D01*
X25784826Y15343286D01*
X25533904Y15368000D01*
X24466096Y15368000D01*
X24215174Y15343286D01*
X24125000Y15315932D01*
X24034826Y15343286D01*
X23783904Y15368000D01*
X22716096Y15368000D01*
X22465174Y15343286D01*
X22143214Y15245621D01*
X21846495Y15087021D01*
X21586418Y14873582D01*
X21372979Y14613505D01*
X21214379Y14316786D01*
X21116714Y13994826D01*
X21083736Y13660000D01*
X21116714Y13325174D01*
X21214379Y13003214D01*
X21372979Y12706495D01*
X21442000Y12622392D01*
X21442001Y10143842D01*
X21431080Y10254722D01*
X21324695Y10605427D01*
X21151934Y10928640D01*
X20919438Y11211938D01*
X20636140Y11444434D01*
X20312927Y11617195D01*
X19962222Y11723580D01*
X19688899Y11750500D01*
X17411947Y11750500D01*
X16957990Y12204456D01*
X16957990Y12655544D01*
X19010626Y14708179D01*
X19070284Y14740067D01*
X19299907Y14928514D01*
X19347133Y14986059D01*
X21363946Y17002871D01*
X21421486Y17050093D01*
X21609933Y17279716D01*
X21749961Y17541690D01*
X21836190Y17825949D01*
X21858010Y18047491D01*
X21865306Y18121569D01*
X21858010Y18195647D01*
X21858010Y20837607D01*
X22150000Y20837607D01*
X22327999Y20855138D01*
X22499158Y20907059D01*
X22656898Y20991373D01*
X22795159Y21104841D01*
X22908627Y21243102D01*
X22992941Y21400842D01*
X23044862Y21572001D01*
X23062393Y21750000D01*
X23062393Y22929760D01*
X25404634Y25272000D01*
X25622490Y25272000D01*
X25789048Y25069048D01*
X26155714Y24768134D01*
X26574040Y24544534D01*
X27027950Y24406842D01*
X27381706Y24372000D01*
X28618294Y24372000D01*
X28972050Y24406842D01*
X29425960Y24544534D01*
X29844286Y24768134D01*
X30210952Y25069048D01*
X30511866Y25435714D01*
X30735466Y25854040D01*
X30873158Y26307950D01*
X30919651Y26780000D01*
X30873158Y27252050D01*
X30735466Y27705960D01*
X30511866Y28124286D01*
X30210952Y28490952D01*
X29844286Y28791866D01*
X29425960Y29015466D01*
X28972050Y29153158D01*
X28618294Y29188000D01*
X27381706Y29188000D01*
X27027950Y29153158D01*
X26574040Y29015466D01*
X26155714Y28791866D01*
X25789048Y28490952D01*
X25622490Y28288000D01*
X24854070Y28288000D01*
X24780000Y28295295D01*
X24705930Y28288000D01*
X24705922Y28288000D01*
X24509686Y28268672D01*
X24484379Y28266180D01*
X24200121Y28179951D01*
X23938147Y28039923D01*
X23708524Y27851476D01*
X23661302Y27793936D01*
X22469350Y26601983D01*
X22327999Y26644862D01*
X22150000Y26662393D01*
X20350000Y26662393D01*
X20172001Y26644862D01*
X20000842Y26592941D01*
X19843102Y26508627D01*
X19704841Y26395159D01*
X19591373Y26256898D01*
X19507059Y26099158D01*
X19455138Y25927999D01*
X19437607Y25750000D01*
X19437607Y24533626D01*
X19315156Y24634119D01*
X18983693Y24811290D01*
X18624033Y24920392D01*
X18343724Y24948000D01*
X17660593Y24948000D01*
X17660468Y24948067D01*
X17300810Y25057168D01*
X16926777Y25094008D01*
X16689780Y25070665D01*
X16737669Y25129018D01*
X16924126Y25477854D01*
X17038945Y25856363D01*
X17077715Y26250000D01*
X17038945Y26643637D01*
X16924126Y27022146D01*
X16737669Y27370982D01*
X16486740Y27676740D01*
X16180982Y27927669D01*
X15832146Y28114126D01*
X15453637Y28228945D01*
X15158638Y28258000D01*
X14279789Y28258000D01*
X13407999Y29129790D01*
X13407999Y30308208D01*
X14991792Y31892000D01*
X16355177Y31892000D01*
X16394313Y31844313D01*
X16684844Y31605881D01*
X17016307Y31428710D01*
X17375967Y31319608D01*
X17656276Y31292000D01*
X18343724Y31292000D01*
X18624033Y31319608D01*
X18983693Y31428710D01*
X19315156Y31605881D01*
X19599127Y31838930D01*
X19729018Y31732331D01*
X20077854Y31545874D01*
X20456363Y31431055D01*
X20751362Y31402000D01*
X22748638Y31402000D01*
X23043637Y31431055D01*
X23422146Y31545874D01*
X23770982Y31732331D01*
X24076740Y31983260D01*
X24090673Y32000237D01*
X25090662Y31964705D01*
X25080349Y31860000D01*
X25126842Y31387950D01*
X25264534Y30934040D01*
X25488134Y30515714D01*
X25789048Y30149048D01*
X26155714Y29848134D01*
X26574040Y29624534D01*
X27027950Y29486842D01*
X27381706Y29452000D01*
X28618294Y29452000D01*
X28972050Y29486842D01*
X29425960Y29624534D01*
X29844286Y29848134D01*
X30210952Y30149048D01*
X30511866Y30515714D01*
X30735466Y30934040D01*
X30873158Y31387950D01*
X30919651Y31860000D01*
X30873158Y32332050D01*
X30735466Y32785960D01*
X30511866Y33204286D01*
X30210952Y33570952D01*
X30124379Y33642000D01*
X32842001Y33642000D01*
X32842000Y4304848D01*
G36*
X7592002Y30370209D02*
G01*
X7592001Y27838784D01*
X7506898Y27908627D01*
X7349158Y27992941D01*
X7177999Y28044862D01*
X7000000Y28062393D01*
X3383364Y28062393D01*
X3154430Y28131840D01*
X2888821Y28158000D01*
X1511179Y28158000D01*
X1245570Y28131840D01*
X904761Y28028456D01*
X758000Y27950011D01*
X758000Y29829989D01*
X904761Y29751544D01*
X1245570Y29648160D01*
X1511179Y29622000D01*
X2888821Y29622000D01*
X3154430Y29648160D01*
X3495239Y29751544D01*
X3809331Y29919429D01*
X4056165Y30122000D01*
X4935757Y30122000D01*
X5000000Y30115673D01*
X5064243Y30122000D01*
X5064250Y30122000D01*
X5256413Y30140926D01*
X5502972Y30215719D01*
X5730202Y30337176D01*
X5929370Y30500630D01*
X5970328Y30550537D01*
X6011792Y30592001D01*
X7370210Y30592001D01*
X7592002Y30370209D01*
G37*
X7592002Y30370209D02*
X7592001Y27838784D01*
X7506898Y27908627D01*
X7349158Y27992941D01*
X7177999Y28044862D01*
X7000000Y28062393D01*
X3383364Y28062393D01*
X3154430Y28131840D01*
X2888821Y28158000D01*
X1511179Y28158000D01*
X1245570Y28131840D01*
X904761Y28028456D01*
X758000Y27950011D01*
X758000Y29829989D01*
X904761Y29751544D01*
X1245570Y29648160D01*
X1511179Y29622000D01*
X2888821Y29622000D01*
X3154430Y29648160D01*
X3495239Y29751544D01*
X3809331Y29919429D01*
X4056165Y30122000D01*
X4935757Y30122000D01*
X5000000Y30115673D01*
X5064243Y30122000D01*
X5064250Y30122000D01*
X5256413Y30140926D01*
X5502972Y30215719D01*
X5730202Y30337176D01*
X5929370Y30500630D01*
X5970328Y30550537D01*
X6011792Y30592001D01*
X7370210Y30592001D01*
X7592002Y30370209D01*
M02*
