<?xml version="1.0" standalone="no"?>
 <!DOCTYPE svg PUBLIC "-//W3C//DTD SVG 1.1//EN" 
 "http://www.w3.org/Graphics/SVG/1.1/DTD/svg11.dtd"> 
<svg
  xmlns:svg="http://www.w3.org/2000/svg"
  xmlns="http://www.w3.org/2000/svg"
  xmlns:xlink="http://www.w3.org/1999/xlink"
  version="1.1"
  width="29.700220cm" height="21.000720cm" viewBox="0 0 116930 82680">
<title>SVG Picture created as BoatFanControl-F_SilkS.svg date 2020/06/22 17:07:39 </title>
  <desc>Picture generated by PCBNEW </desc>
<g style="fill:#000000; fill-opacity:1;stroke:#000000; stroke-opacity:1;
stroke-linecap:round; stroke-linejoin:round;"
 transform="translate(0 0) scale(1 1)">
</g>
<g style="fill:#000000; fill-opacity:0.0; 
stroke:#000000; stroke-width:-0.000393701; stroke-opacity:1; 
stroke-linecap:round; stroke-linejoin:round;">
</g>
<g style="fill:#000000; fill-opacity:0.0; 
stroke:#000000; stroke-width:47.2441; stroke-opacity:1; 
stroke-linecap:round; stroke-linejoin:round;">
<path d="M36003 27795
L39153 27500
" />
</g>
<g style="fill:#000000; fill-opacity:0.0; 
stroke:#000000; stroke-width:78.7402; stroke-opacity:1; 
stroke-linecap:round; stroke-linejoin:round;">
<text x="45551.2" y="33444.9"
textLength="809.899" font-size="629.921" lengthAdjust="spacingAndGlyphs"
text-anchor="middle" opacity="0">v2</text>
<path d="M45213 33107
L45326 33422
L45438 33107
" />
<path d="M45596 32994
L45618 32972
L45663 32949
L45776 32949
L45821 32972
L45843 32994
L45866 33039
L45866 33084
L45843 33152
L45573 33422
L45866 33422
" />
<text x="44862.2" y="32716.5"
textLength="3855.64" font-size="734.908" lengthAdjust="spacingAndGlyphs"
text-anchor="middle" opacity="0">Boat Fan</text>
<path d="M43300 32266
L43379 32304
L43405 32341
L43431 32416
L43431 32529
L43405 32604
L43379 32641
L43326 32679
L43116 32679
L43116 31891
L43300 31891
L43353 31929
L43379 31966
L43405 32041
L43405 32116
L43379 32191
L43353 32229
L43300 32266
L43116 32266
" />
<path d="M43746 32679
L43694 32641
L43667 32604
L43641 32529
L43641 32304
L43667 32229
L43694 32191
L43746 32154
L43825 32154
L43877 32191
L43904 32229
L43930 32304
L43930 32529
L43904 32604
L43877 32641
L43825 32679
L43746 32679
" />
<path d="M44402 32679
L44402 32266
L44376 32191
L44324 32154
L44219 32154
L44166 32191
" />
<path d="M44402 32641
L44350 32679
L44219 32679
L44166 32641
L44140 32566
L44140 32491
L44166 32416
L44219 32379
L44350 32379
L44402 32341
" />
<path d="M44586 32154
L44796 32154
" />
<path d="M44665 31891
L44665 32566
L44691 32641
L44744 32679
L44796 32679
" />
<path d="M45583 32266
L45400 32266
" />
<path d="M45400 32679
L45400 31891
L45662 31891
" />
<path d="M46108 32679
L46108 32266
L46082 32191
L46030 32154
L45925 32154
L45872 32191
" />
<path d="M46108 32641
L46056 32679
L45925 32679
L45872 32641
L45846 32566
L45846 32491
L45872 32416
L45925 32379
L46056 32379
L46108 32341
" />
<path d="M46371 32154
L46371 32679
" />
<path d="M46371 32229
L46397 32191
L46450 32154
L46528 32154
L46581 32191
L46607 32266
L46607 32679
" />
<g transform="rotate(-90 46299.2 26614.2)">
<text x="46299.2" y="26909.4"
textLength="1902.14" font-size="787.402" lengthAdjust="spacingAndGlyphs"
text-anchor="middle" opacity="0">Batt</text>
</g>
<path d="M46257 27176
L46285 27092
L46313 27064
L46369 27035
L46453 27035
L46510 27064
L46538 27092
L46566 27148
L46566 27373
L45975 27373
L45975 27176
L46003 27120
L46032 27092
L46088 27064
L46144 27064
L46200 27092
L46228 27120
L46257 27176
L46257 27373
" />
<path d="M46566 26529
L46257 26529
L46200 26557
L46172 26614
L46172 26726
L46200 26782
" />
<path d="M46538 26529
L46566 26586
L46566 26726
L46538 26782
L46482 26811
L46425 26811
L46369 26782
L46341 26726
L46341 26586
L46313 26529
" />
<path d="M46172 26332
L46172 26107
" />
<path d="M45975 26248
L46482 26248
L46538 26220
L46566 26164
L46566 26107
" />
<path d="M46172 25995
L46172 25770
" />
<path d="M45975 25911
L46482 25911
L46538 25883
L46566 25826
L46566 25770
" />
<g transform="rotate(-90 46259.8 28661.4)">
<text x="46259.8" y="28956.7"
textLength="1677.17" font-size="787.402" lengthAdjust="spacingAndGlyphs"
text-anchor="middle" opacity="0">Fan</text>
</g>
<path d="M46217 29111
L46217 29308
" />
<path d="M46526 29308
L45936 29308
L45936 29026
" />
<path d="M46526 28548
L46217 28548
L46161 28577
L46133 28633
L46133 28745
L46161 28802
" />
<path d="M46498 28548
L46526 28605
L46526 28745
L46498 28802
L46442 28830
L46386 28830
L46330 28802
L46302 28745
L46302 28605
L46273 28548
" />
<path d="M46133 28267
L46526 28267
" />
<path d="M46189 28267
L46161 28239
L46133 28183
L46133 28098
L46161 28042
L46217 28014
L46526 28014
" />
<g transform="rotate(-90 46299.2 30787.4)">
<text x="46299.2" y="31082.7"
textLength="1761.53" font-size="787.402" lengthAdjust="spacingAndGlyphs"
text-anchor="middle" opacity="0">Gnd</text>
</g>
<path d="M46003 31167
L45975 31223
L45975 31307
L46003 31392
L46060 31448
L46116 31476
L46228 31504
L46313 31504
L46425 31476
L46482 31448
L46538 31392
L46566 31307
L46566 31251
L46538 31167
L46510 31138
L46313 31138
L46313 31251
" />
<path d="M46172 30885
L46566 30885
" />
<path d="M46228 30885
L46200 30857
L46172 30801
L46172 30717
L46200 30660
L46257 30632
L46566 30632
" />
<path d="M46566 30098
L45975 30098
" />
<path d="M46538 30098
L46566 30154
L46566 30267
L46538 30323
L46510 30351
L46453 30379
L46285 30379
L46228 30351
L46200 30323
L46172 30267
L46172 30154
L46200 30098
" />
</g>
<g style="fill:#000000; fill-opacity:0.0; 
stroke:#000000; stroke-width:47.2441; stroke-opacity:1; 
stroke-linecap:round; stroke-linejoin:round;">
<path d="M43582 37425
L43582 37122
" />
<path d="M43582 34244
L43582 34547
" />
<path d="M44122 37122
L44122 34547
" />
<path d="M43043 37122
L44122 37122
" />
<path d="M43043 34547
L43043 37122
" />
<path d="M44122 34547
L43043 34547
" />
<path d="M42500 34244
L42500 34547
" />
<path d="M42500 37425
L42500 37122
" />
<path d="M41960 34547
L41960 37122
" />
<path d="M43039 34547
L41960 34547
" />
<path d="M43039 37122
L43039 34547
" />
<path d="M41960 37122
L43039 37122
" />
</g>
<g style="fill:#000000; fill-opacity:0.0; 
stroke:#000000; stroke-width:59.0551; stroke-opacity:1; 
stroke-linecap:round; stroke-linejoin:round;">
<path d="M33720 32578
L41200 32578
" />
<path d="M35114 25688
L33720 25688
" />
<path d="M39850 22145
L39850 25688
" />
<path d="M39850 22145
L35114 22145
" />
<path d="M33720 25688
L33720 32578
" />
<path d="M39850 25688
L41200 25688
" />
<path d="M41200 25688
L41200 32578
" />
<path d="M35114 22145
L35114 25688
" />
<path d="M37137 38807
L37137 37807
" />
<path d="M39137 38807
L37137 38807
" />
<path d="M39137 37807
L39137 38807
" />
<path d="M37137 37807
L39137 37807
" />
<path d="M36037 38907
L36637 38907
" />
<path d="M36037 37707
L36037 38907
" />
<path d="M36637 37707
L36037 37707
" />
</g>
<g style="fill:#000000; fill-opacity:0.0; 
stroke:#000000; stroke-width:47.2441; stroke-opacity:1; 
stroke-linecap:round; stroke-linejoin:round;">
<path d="M41330 29129
L42488 29129
" />
<path d="M42488 29129
L42488 26988
" />
<path d="M42488 26988
L41330 26988
" />
<path d="M41330 26988
L41330 29129
" />
<path d="M41909 29531
L41909 29129
" />
<path d="M41909 26586
L41909 26988
" />
<path d="M41330 28775
L42488 28775
" />
<path d="M41330 28728
L42488 28728
" />
<path d="M41330 28822
L42488 28822
" />
<path d="M38978 33183
L39525 33183
" />
<path d="M38978 33183
L38978 33133
" />
<path d="M39525 33183
L39525 33133
" />
<path d="M38978 33183
L39012 33183
" />
<path d="M39491 33183
L39525 33183
" />
<path d="M38978 32913
L38978 32643
" />
<path d="M38978 32643
L39251 32643
" />
<path d="M46732 31692
L46732 25645
" />
<path d="M45748 31692
L45748 25645
" />
<path d="M43307 31692
L43307 25645
" />
<path d="M42574 31692
L42574 25645
" />
<path d="M46952 31692
L46952 25645
" />
<path d="M42574 31692
L46952 31692
" />
<path d="M42574 25645
L46952 25645
" />
<path d="M44069 30185
L44153 30270
" />
<path d="M44161 28092
L44299 28230
" />
<path d="M45190 29120
L45222 29152
" />
<path d="M44069 28185
L44222 28339
" />
<path d="M45087 29203
L45129 29245
" />
<path d="M44161 26092
L44299 26230
" />
<path d="M45190 27120
L45222 27152
" />
<path d="M44069 26185
L44222 26339
" />
<path d="M45087 27203
L45129 27245
" />
<path d="M46755 31787
L47047 31787
" />
<path d="M47047 31787
L47047 31590
" />
<circle cx="44645.7" cy="26669.3" r="759.843" /> 
<circle cx="44645.7" cy="28669.3" r="759.843" /> 
<path d="M45368.5 30904.3 A760.088 760.088 0.0 0 0 45405.6 30656.2" />
<path d="M44177.6 31268.1 A760.073 760.073 0.0 0 0 45113.5 31268.4" />
<path d="M44167.3 30078.7 A759.978 759.978 0.0 0 0 44167.5 31260" />
<path d="M45113.8 30070.5 A760.073 760.073 0.0 0 0 44177.9 30070.2" />
<path d="M45405.5 30669.3 A759.843 759.843 0.0 0 0 45368.3 30434.5" />
<path d="M41023 30279
L40260 31042
" />
<path d="M40260 31042
L42080 32863
" />
<path d="M42080 32863
L42843 32100
" />
<path d="M42843 32100
L41023 30279
" />
<path d="M40427 30447
L40641 30661
" />
<path d="M42676 32696
L42462 32482
" />
<path d="M41169 26854
L40090 26854
" />
<path d="M40090 26854
L40090 29429
" />
<path d="M40090 29429
L41169 29429
" />
<path d="M41169 29429
L41169 26854
" />
<path d="M40629 26551
L40629 26854
" />
<path d="M40629 29732
L40629 29429
" />
<path d="M40015 37385
L40015 33251
" />
<path d="M33673 37385
L33673 33251
" />
<path d="M33673 37385
L40015 37385
" />
<path d="M33673 33251
L40015 33251
" />
<path d="M40015 36318
L40787 36318
" />
<path d="M40015 35318
L40787 35318
" />
<path d="M40015 34318
L40787 34318
" />
<path d="M44251 34212
L44251 35984
" />
<path d="M45826 33720
L45236 33720
" />
<path d="M46811 35984
L46811 34212
" />
<path d="M45236 36476
L45826 36476
" />
<path d="M36244 28299
L36244 29456
" />
<path d="M36244 29456
L38385 29456
" />
<path d="M38385 29456
L38385 28299
" />
<path d="M38385 28299
L36244 28299
" />
<path d="M35842 28877
L36244 28877
" />
<path d="M38787 28877
L38385 28877
" />
<path d="M36598 28299
L36598 29456
" />
<path d="M36645 28299
L36645 29456
" />
<path d="M36551 28299
L36551 29456
" />
</g>
<g style="fill:#000000; fill-opacity:0.0; 
stroke:#000000; stroke-width:59.0551; stroke-opacity:1; 
stroke-linecap:round; stroke-linejoin:round;">
<g transform="rotate(-90 43582.7 35901.6)">
<text x="43582.7" y="36098.4"
textLength="871.016" font-size="524.934" lengthAdjust="spacingAndGlyphs"
text-anchor="middle" opacity="0">R4</text>
</g>
<path d="M43760 35967
L43573 36098
" />
<path d="M43760 36192
L43367 36192
L43367 36042
L43385 36004
L43404 35985
L43442 35967
L43498 35967
L43535 35985
L43554 36004
L43573 36042
L43573 36192
" />
<path d="M43498 35629
L43760 35629
" />
<path d="M43348 35723
L43629 35817
L43629 35573
" />
<g transform="rotate(-90 42500 35964.6)">
<text x="42500" y="36161.4"
textLength="845.426" font-size="524.934" lengthAdjust="spacingAndGlyphs"
text-anchor="middle" opacity="0">R3</text>
</g>
<path d="M42678 36030
L42490 36161
" />
<path d="M42678 36255
L42284 36255
L42284 36105
L42303 36067
L42321 36048
L42359 36030
L42415 36030
L42453 36048
L42471 36067
L42490 36105
L42490 36255
" />
<path d="M42284 35898
L42284 35655
L42434 35786
L42434 35730
L42453 35692
L42471 35673
L42509 35655
L42603 35655
L42640 35673
L42659 35692
L42678 35730
L42678 35842
L42659 35880
L42640 35898
" />
<text x="38177.2" y="31326.8"
textLength="864.173" font-size="524.934" lengthAdjust="spacingAndGlyphs"
text-anchor="middle" opacity="0">U1</text>
<path d="M37877 30914
L37877 31233
L37895 31270
L37914 31289
L37952 31308
L38027 31308
L38064 31289
L38083 31270
L38102 31233
L38102 30914
" />
<path d="M38495 31308
L38270 31308
" />
<path d="M38383 31308
L38383 30914
L38345 30970
L38308 31008
L38270 31026
" />
<text x="37578.7" y="37342.5"
textLength="1164.14" font-size="524.934" lengthAdjust="spacingAndGlyphs"
text-anchor="middle" opacity="0">TH1</text>
<path d="M37072 36930
L37297 36930
" />
<path d="M37185 37323
L37185 36930
" />
<path d="M37428 37323
L37428 36930
" />
<path d="M37428 37117
L37653 37117
" />
<path d="M37653 37323
L37653 36930
" />
<path d="M38047 37323
L37822 37323
" />
<path d="M37934 37323
L37934 36930
L37897 36986
L37859 37023
L37822 37042
" />
<g transform="rotate(-90 42007.9 27992.1)">
<text x="42007.9" y="28189"
textLength="845.426" font-size="524.934" lengthAdjust="spacingAndGlyphs"
text-anchor="middle" opacity="0">D2</text>
</g>
<path d="M42185 28282
L41792 28282
L41792 28188
L41811 28132
L41848 28095
L41886 28076
L41961 28057
L42017 28057
L42092 28076
L42129 28095
L42167 28132
L42185 28188
L42185 28282
" />
<path d="M41829 27907
L41811 27889
L41792 27851
L41792 27757
L41811 27720
L41829 27701
L41867 27682
L41904 27682
L41961 27701
L42185 27926
L42185 27682
" />
<g transform="rotate(-90 41082.7 30059.1)">
<text x="41082.7" y="30255.9"
textLength="470.472" font-size="524.934" lengthAdjust="spacingAndGlyphs"
text-anchor="middle" opacity="0">K</text>
</g>
<path d="M41260 30162
L40867 30162
" />
<path d="M41260 29937
L41035 30105
" />
<path d="M40867 29937
L41092 30162
" />
<text x="38444.9" y="33110.2"
textLength="751.687" font-size="524.934" lengthAdjust="spacingAndGlyphs"
text-anchor="middle" opacity="0">J2</text>
<path d="M38313 32697
L38313 32979
L38294 33035
L38257 33072
L38201 33091
L38163 33091
" />
<path d="M38482 32735
L38501 32716
L38538 32697
L38632 32697
L38669 32716
L38688 32735
L38707 32772
L38707 32810
L38688 32866
L38463 33091
L38707 33091
" />
<g transform="rotate(-90 42992.1 31043.3)">
<text x="42992.1" y="31240.2"
textLength="751.687" font-size="524.934" lengthAdjust="spacingAndGlyphs"
text-anchor="middle" opacity="0">J1</text>
</g>
<path d="M42776 31174
L43057 31174
L43113 31193
L43151 31230
L43170 31287
L43170 31324
" />
<path d="M43170 30780
L43170 31005
" />
<path d="M43170 30893
L42776 30893
L42832 30930
L42870 30968
L42889 31005
" />
<g transform="rotate(45 41614.2 31633.9)">
<text x="41614.2" y="31830.7"
textLength="845.426" font-size="524.934" lengthAdjust="spacingAndGlyphs"
text-anchor="middle" opacity="0">R2</text>
</g>
<path d="M41441 31713
L41481 31488
" />
<path d="M41282 31554
L41561 31275
L41667 31381
L41680 31421
L41680 31448
L41667 31488
L41627 31527
L41587 31541
L41561 31541
L41521 31527
L41415 31421
" />
<path d="M41799 31567
L41826 31567
L41866 31580
L41932 31647
L41945 31686
L41945 31713
L41932 31753
L41905 31779
L41852 31806
L41534 31806
L41706 31978
" />
<g transform="rotate(-90 40629.9 28385.8)">
<text x="40629.9" y="28582.7"
textLength="845.426" font-size="524.934" lengthAdjust="spacingAndGlyphs"
text-anchor="middle" opacity="0">R1</text>
</g>
<path d="M40808 28451
L40620 28582
" />
<path d="M40808 28676
L40414 28676
L40414 28526
L40433 28488
L40451 28470
L40489 28451
L40545 28451
L40583 28470
L40601 28488
L40620 28526
L40620 28676
" />
<path d="M40808 28076
L40808 28301
" />
<path d="M40808 28188
L40414 28188
L40470 28226
L40508 28263
L40526 28301
" />
<g transform="rotate(-90 37165.4 35511.8)">
<text x="37165.4" y="35708.7"
textLength="864.173" font-size="524.934" lengthAdjust="spacingAndGlyphs"
text-anchor="middle" opacity="0">Q1</text>
</g>
<path d="M37380 35549
L37362 35586
L37324 35624
L37268 35680
L37249 35718
L37249 35755
" />
<path d="M37343 35736
L37324 35774
L37287 35811
L37212 35830
L37080 35830
L37005 35811
L36968 35774
L36949 35736
L36949 35661
L36968 35624
L37005 35586
L37080 35568
L37212 35568
L37287 35586
L37324 35624
L37343 35661
L37343 35736
" />
<path d="M37343 35193
L37343 35418
" />
<path d="M37343 35305
L36949 35305
L37005 35343
L37043 35380
L37062 35418
" />
<g transform="rotate(-90 45551.2 35177.2)">
<text x="45551.2" y="35374"
textLength="1276.62" font-size="524.934" lengthAdjust="spacingAndGlyphs"
text-anchor="middle" opacity="0">SW1</text>
</g>
<path d="M45710 35702
L45729 35645
L45729 35552
L45710 35514
L45691 35495
L45654 35477
L45616 35477
L45579 35495
L45560 35514
L45541 35552
L45523 35627
L45504 35664
L45485 35683
L45448 35702
L45410 35702
L45373 35683
L45354 35664
L45335 35627
L45335 35533
L45354 35477
" />
<path d="M45335 35345
L45729 35252
L45448 35177
L45729 35102
L45335 35008
" />
<path d="M45729 34652
L45729 34877
" />
<path d="M45729 34764
L45335 34764
L45391 34802
L45429 34839
L45448 34877
" />
<text x="37598.4" y="29153.5"
textLength="845.426" font-size="524.934" lengthAdjust="spacingAndGlyphs"
text-anchor="middle" opacity="0">D1</text>
<path d="M37307 29134
L37307 28741
L37401 28741
L37457 28759
L37495 28797
L37514 28834
L37532 28909
L37532 28966
L37514 29041
L37495 29078
L37457 29116
L37401 29134
L37307 29134
" />
<path d="M37907 29134
L37682 29134
" />
<path d="M37795 29134
L37795 28741
L37757 28797
L37720 28834
L37682 28853
" />
<text x="35905.5" y="29547.2"
textLength="470.472" font-size="524.934" lengthAdjust="spacingAndGlyphs"
text-anchor="middle" opacity="0">K</text>
<path d="M35802 29528
L35802 29134
" />
<path d="M36027 29528
L35858 29303
" />
<path d="M36027 29134
L35802 29359
" />
<g >
</g>
</g> 
</svg>
