M48
; DRILL file {KiCad 5.1.6-1.fc32} date Fri Jul  3 18:31:50 2020
; FORMAT={-:-/ absolute / metric / decimal}
; #@! TF.CreationDate,2020-07-03T18:31:50+02:00
; #@! TF.GenerationSoftware,Kicad,Pcbnew,5.1.6-1.fc32
FMAT,2
METRIC
T1C0.500
T2C0.800
T3C1.016
T4C1.100
T5C1.200
T6C1.400
T7C3.200
T8C3.500
%
G90
G05
T1
X14.5Y16.0
T2
X5.5Y28.9
X15.0Y29.75
X22.75Y13.66
X22.75Y3.5
X18.0Y33.2
X18.0Y23.04
X16.75Y23.0
X23.934Y15.816
X25.5Y13.66
X25.5Y3.5
T3
X2.2Y31.43
X2.2Y28.89
X2.2Y26.35
X4.7Y18.6
X7.24Y18.6
X9.78Y18.6
X12.32Y18.6
X14.86Y18.6
X17.4Y18.6
X7.86Y2.3
X10.4Y2.3
X12.94Y2.3
T4
X21.5Y33.25
X21.5Y23.09
X4.5Y26.25
X14.66Y26.25
X28.2Y13.7
X28.2Y7.2
X32.7Y13.7
X32.7Y7.2
T5
X19.55Y12.43
X19.55Y9.89
X19.55Y7.35
T6
X28.5Y31.86
X28.5Y26.78
X28.5Y21.7
T7
X31.0Y2.6
X3.0Y2.6
T8
X3.75Y9.89
T0
M30
